<?xml version="1.0" encoding="UTF-8"?>
<svg version="1.1" xmlns="http://www.w3.org/2000/svg" width="1278" height="347">
<path d="M0 0 C3.64609005 1.21536335 4.15156173 2.26056568 6.3125 5.375 C7.36050781 6.85806641 7.36050781 6.85806641 8.4296875 8.37109375 C9.02861816 9.2216333 9.02861816 9.2216333 9.63964844 10.08935547 C12.35770527 13.90692776 15.15403479 17.66751387 17.9375 21.4375 C18.49800049 22.1991748 19.05850098 22.96084961 19.63598633 23.74560547 C20.19825928 24.5088916 20.76053223 25.27217773 21.33984375 26.05859375 C22.15384895 27.19661186 22.15384895 27.19661186 22.98429871 28.35762024 C24.9536321 31.03983521 24.9536321 31.03983521 27.29528809 33.40498352 C35.52028464 42.58539457 35.18870285 51.09476236 34.87890625 62.984375 C34.86208766 64.89533468 34.84929188 66.80633358 34.84031677 68.71734619 C34.8062071 73.70945325 34.71802854 78.69914486 34.61798096 83.69030762 C34.5253564 88.79841446 34.48469086 93.90691765 34.43945312 99.015625 C34.34338056 109.01146895 34.19009393 119.00553243 34 129 C34.90505783 129.08482887 34.90505783 129.08482887 35.82839966 129.17137146 C36.6276889 129.25202347 37.42697815 129.33267548 38.25048828 129.41577148 C39.03948517 129.49294907 39.82848206 129.57012665 40.64138794 129.64964294 C44.32140935 130.19628709 47.50945626 131.52337682 50.875 133.0625 C51.56408447 133.37340576 52.25316895 133.68431152 52.96313477 134.00463867 C69.83648469 141.8938095 79.85130838 154.20369833 87 171 C87.38414062 171.90234375 87.76828125 172.8046875 88.1640625 173.734375 C93.49355075 189.37418163 90.54557047 207.2837803 83.6484375 221.85546875 C78.41507146 231.28429862 68.37473064 244.38913849 57.70703125 247.71484375 C57.14371094 247.80894531 56.58039063 247.90304688 56 248 C56 248.66 56 249.32 56 250 C56.763125 250.268125 57.52625 250.53625 58.3125 250.8125 C60.91229902 251.9612484 62.10215992 252.9685876 64 255 C62.6436006 256.20870258 61.26392171 257.39131354 59.875 258.5625 C59.10929688 259.22378906 58.34359375 259.88507813 57.5546875 260.56640625 C54.14847976 262.47784087 52.73216435 262.0245157 49 261 C46.35250091 260.20575027 43.73705101 259.34108741 41.125 258.4375 C40.43664062 258.20353516 39.74828125 257.96957031 39.0390625 257.72851562 C37.35796355 257.15647501 35.67877837 256.57881544 34 256 C34.10211792 256.84594727 34.10211792 256.84594727 34.20629883 257.70898438 C35.87983965 273.6263619 35.87983965 273.6263619 31.84375 278.72265625 C29.04609072 280.42072006 26.25901425 281.79630283 23.23095703 283.03369141 C19.71051767 284.55852167 16.38608808 286.43214585 13.0144043 288.25756836 C-6.8836087 299 -6.8836087 299 -12 299 C-12.33 250.82 -12.66 202.64 -13 153 C-24.17953775 163.06158398 -34.26224527 174.75579546 -35.1386652 190.48932362 C-35.14511775 191.36963592 -35.1515703 192.24994822 -35.15821838 193.15693665 C-35.1680072 194.17350845 -35.17779602 195.19008026 -35.18788147 196.23745728 C-35.19363693 197.34156952 -35.1993924 198.44568176 -35.20532227 199.58325195 C-35.21522186 200.75441055 -35.22512146 201.92556915 -35.23532104 203.13221741 C-35.26689264 207.00088483 -35.29167645 210.86956454 -35.31640625 214.73828125 C-35.33697952 217.42156898 -35.35792893 220.10485113 -35.37937927 222.78813171 C-35.42923067 229.12739894 -35.47419741 235.46669098 -35.51740164 241.80600661 C-35.56683869 249.02487795 -35.62173277 256.24370458 -35.67708123 263.46253264 C-35.79078528 278.30831314 -35.89764938 293.15413671 -36 308 C-40.79482068 310.75702189 -44.58609132 311.53328373 -50 312 C-50.0703795 296.74342714 -50.12312892 281.48686181 -50.15543652 266.23016262 C-50.17084262 259.14467854 -50.19181085 252.05929589 -50.22631836 244.97387695 C-50.25641407 238.79133357 -50.27562034 232.6088637 -50.28226548 226.42624909 C-50.28614399 223.1588171 -50.29675009 219.89164183 -50.31719017 216.62426567 C-50.4746591 190.39221271 -47.67236773 168.75316102 -29.5531311 148.31161499 C-27.07307251 146.06616014 -24.67734485 144.81989127 -21.71048927 143.33183861 C-17.36281174 140.92807186 -13.81096035 138.44382716 -12.19736481 133.58126068 C-10.90834327 126.10400723 -11.24772218 118.51666801 -11.4140625 110.9609375 C-11.41774006 108.50900426 -11.41523657 106.05705464 -11.40682983 103.60513306 C-11.40129221 97.17577159 -11.47931561 90.75007643 -11.57513428 84.3215332 C-11.65813912 77.75226354 -11.66159693 71.18299603 -11.671875 64.61328125 C-11.70367457 51.74101286 -11.82110567 38.871022 -12 26 C-12.5007605 26.3623877 -13.001521 26.72477539 -13.51745605 27.09814453 C-15.83418995 28.77426691 -18.15146729 30.44963647 -20.46875 32.125 C-21.25604492 32.69476563 -22.04333984 33.26453125 -22.85449219 33.8515625 C-28.04502146 37.60323869 -33.2601372 41.31758138 -38.5 45 C-45.19667443 49.71201853 -51.84805334 54.4831519 -58.48046875 59.28515625 C-63.524343 62.93671104 -68.58299231 66.56640904 -73.6550293 70.17871094 C-76.99795652 72.56230455 -80.33062968 74.95949246 -83.65625 77.3671875 C-84.45933594 77.94855469 -85.26242188 78.52992187 -86.08984375 79.12890625 C-87.65568017 80.26331286 -89.22082436 81.39867581 -90.78515625 82.53515625 C-91.50574219 83.05722656 -92.22632813 83.57929687 -92.96875 84.1171875 C-93.91911133 84.80723877 -93.91911133 84.80723877 -94.88867188 85.51123047 C-97 87 -97 87 -100.20166016 88.60888672 C-103.21600189 91.18456836 -103.42040478 91.44975115 -103.77294922 95.12597656 C-103.81379607 96.79706038 -103.82248019 98.46913674 -103.8046875 100.140625 C-103.81839386 101.02280701 -103.83210022 101.90498901 -103.84622192 102.81390381 C-103.88355775 105.62645295 -103.87980485 108.43723799 -103.875 111.25 C-103.89312434 113.15888181 -103.91392621 115.06774021 -103.9375 116.9765625 C-103.98938436 121.65133775 -104.00442833 126.32495259 -104 131 C-101.62141265 129.4233407 -99.24398978 127.84497134 -96.8671875 126.265625 C-95.86788208 125.60361084 -95.86788208 125.60361084 -94.84838867 124.92822266 C-89.97191568 121.68520388 -85.23109055 118.30119244 -80.515625 114.828125 C-69.74358974 107 -69.74358974 107 -68 107 C-68 175.97 -68 244.94 -68 316 C-73 318 -73 318 -82 319 C-82.33 257.95 -82.66 196.9 -83 134 C-93.48094024 140.42050246 -93.48094024 140.42050246 -103 148 C-103.10933161 150.22727646 -103.14693168 152.45807385 -103.15821838 154.68800354 C-103.16315636 155.39531252 -103.16809434 156.10262151 -103.17318195 156.8313641 C-103.18863079 159.21903516 -103.19693742 161.60667919 -103.20532227 163.99438477 C-103.214895 165.69894654 -103.22490471 167.40350591 -103.23532104 169.10806274 C-103.26244176 173.75040213 -103.28341239 178.39275176 -103.30332303 183.03512692 C-103.32513854 187.88117941 -103.35254885 192.72720008 -103.37937927 197.57322693 C-103.42936633 206.75653657 -103.47428277 215.93986381 -103.51740164 225.12320799 C-103.56672274 235.5752903 -103.62165982 246.0273407 -103.67708123 256.47939217 C-103.79099354 277.98623173 -103.89781233 299.49310175 -104 321 C-108.29 321 -112.58 321 -117 321 C-117 267.21 -117 213.42 -117 158 C-127.09782303 164.86381074 -127.09782303 164.86381074 -137 172 C-137.66 172 -138.32 172 -139 172 C-139 220.51 -139 269.02 -139 319 C-150 317 -150 317 -152 316 C-152.30400484 296.4679465 -152.53308015 276.93637449 -152.67355824 257.40244389 C-152.74052643 248.33186208 -152.83177998 239.26275209 -152.98071289 230.19311523 C-153.11049944 222.28565759 -153.19420439 214.37926585 -153.22315043 206.47077268 C-153.24006712 202.28455728 -153.2796556 198.10139034 -153.37449074 193.91615486 C-153.46315249 189.9711718 -153.48987766 186.03047186 -153.47039986 182.0845871 C-153.47395892 180.64166598 -153.49959734 179.19859287 -153.54967117 177.75653648 C-153.69960327 173.21352491 -153.5658155 169.28747035 -152 165 C-148.0611932 161.08989619 -143.8791016 158.65775469 -139 156 C-137.27497271 154.83688355 -135.56268273 153.65417005 -133.875 152.4375 C-131.34032926 150.61076071 -128.85475112 148.9168909 -126.1408844 147.36405945 C-120.31840279 143.88671036 -120.31840279 143.88671036 -117.12057495 138.17495728 C-116.92987951 134.79658739 -117.07522846 131.58029648 -117.33984375 128.20703125 C-117.41391462 125.69471403 -117.48612152 123.1823413 -117.55664062 120.66992188 C-117.73239079 116.74189349 -117.93711535 112.81869175 -118.1809082 108.89428711 C-119.39289059 87.46552181 -119.39289059 87.46552181 -115.33529663 81.58908081 C-111.16194332 77.47652315 -106.35630584 74.69709977 -101.14144897 72.09414673 C-98.51377978 70.75157182 -96.23208643 69.11304027 -93.90234375 67.30859375 C-85.9388939 61.54016656 -77.94128653 55.82481714 -69.89990234 50.16552734 C-65.2297693 46.87622428 -60.59268801 43.5459808 -55.98046875 40.17578125 C-45.52640301 32.54417625 -35.03128189 24.97049085 -24.42675781 17.54907227 C-20.59143917 14.85798986 -16.79802759 12.12119802 -13.0390625 9.32421875 C-11.80833008 8.41446289 -11.80833008 8.41446289 -10.55273438 7.48632812 C-8.96168234 6.30743921 -7.37677285 5.12020436 -5.79882812 3.92382812 C-4.72665039 3.13202148 -4.72665039 3.13202148 -3.6328125 2.32421875 C-2.68752686 1.6139856 -2.68752686 1.6139856 -1.72314453 0.8894043 C-0.87018799 0.44914917 -0.87018799 0.44914917 0 0 Z M2 144 C2 176.34 2 208.68 2 242 C28.53431529 243.58426988 28.53431529 243.58426988 51.8125 236.0625 C52.68519531 235.57910156 53.55789062 235.09570312 54.45703125 234.59765625 C66.6700923 226.92462711 73.65613324 214.80078344 77 201 C78.40256571 184.52800735 74.96508747 170.97377452 64.34375 157.97265625 C54.94055892 147.83761304 40.5431572 141.38155154 26.81640625 140.77734375 C25.25276346 140.73999325 23.68892496 140.7101398 22.125 140.6875 C21.39418213 140.66977539 20.66336426 140.65205078 19.91040039 140.63378906 C13.19501796 140.64267086 8.95115857 142.10422948 2 144 Z " fill="#354755" transform="translate(200,0)"/>
<path d="M0 0 C1.084031 3.2664357 0.9109202 5.1708408 -0.15234375 8.421875 C-0.56891235 9.70082642 -0.56891235 9.70082642 -0.99389648 11.00561523 C-1.30528564 11.91126221 -1.6166748 12.81690918 -1.9375 13.75 C-2.255979 14.687229 -2.57445801 15.62445801 -2.90258789 16.59008789 C-5.89462039 25.13677669 -9.63434372 33.08124261 -14 41 C-14.33676758 41.61987793 -14.67353516 42.23975586 -15.02050781 42.87841797 C-19.22629889 50.59037908 -23.81385408 57.90920757 -29 65 C-29.60328125 65.85851562 -30.2065625 66.71703125 -30.828125 67.6015625 C-43.09549434 84.9055347 -57.92860764 100.14738591 -73 115 C-71.73022681 118.43621086 -70.22847539 121.28065528 -68.1875 124.3125 C-60.06570692 137.89016404 -59.30948224 151.13108181 -59.6875 166.5 C-59.7126594 168.30595808 -59.73545885 170.11195064 -59.75585938 171.91796875 C-59.8101463 176.27952068 -59.89597716 180.63936256 -60 185 C-64.29 185 -68.58 185 -73 185 C-73.02187378 183.39729248 -73.02187378 183.39729248 -73.04418945 181.76220703 C-73.10266075 177.75488711 -73.17988541 173.74810078 -73.26245117 169.74121094 C-73.29547286 168.0150628 -73.32357375 166.28881259 -73.34643555 164.5625 C-73.50806417 152.67763814 -74.04873163 142.58177145 -80.0625 132 C-80.56910156 131.0925 -81.07570313 130.185 -81.59765625 129.25 C-82.93689274 126.91238943 -82.93689274 126.91238943 -85 125 C-85.66128906 125.64001953 -85.66128906 125.64001953 -86.3359375 126.29296875 C-95.11590554 134.45060189 -105.04037284 141.36024856 -115 148 C-115.33771517 150.83024762 -115.48903335 153.45243967 -115.51171875 156.2890625 C-115.52966995 157.10748627 -115.54762115 157.92591003 -115.56611633 158.76913452 C-115.62037514 161.38770364 -115.65416404 164.00608894 -115.6875 166.625 C-115.72065943 168.39846317 -115.75514779 170.17190204 -115.79101562 171.9453125 C-115.87611019 176.29674264 -115.9428464 180.64811679 -116 185 C-116.90470535 184.9969838 -117.80941071 184.99396759 -118.74153137 184.99085999 C-127.40123551 184.96831953 -136.06012062 184.98042968 -144.71973133 185.02846622 C-149.16844883 185.05200241 -153.61642992 185.06358739 -158.06518555 185.04467773 C-178.76665505 184.96611739 -197.15693865 185.86348198 -217.05548096 192.16638184 C-225.80615269 194.64377077 -235.00123579 195.7593988 -244 197 C-244.69198486 197.103125 -245.38396973 197.20625 -246.09692383 197.3125 C-253.83041663 198.34130531 -261.64953855 198.24378312 -269.4375 198.25 C-270.57575226 198.25101212 -270.57575226 198.25101212 -271.73699951 198.25204468 C-296.69907932 198.21677912 -323.49059837 194.39317304 -342 176 C-346.82729476 169.51543039 -350.66763408 162.52177514 -350.43359375 154.2890625 C-349.63620203 150.07940894 -347.48321674 147.41474535 -344 145 C-340.90174139 143.87888325 -338.26840566 143.58998495 -335 144 C-330.95760073 146.02119964 -328.42970655 148.23092613 -326 152 C-325.54033059 153.75534576 -325.14796383 155.5292449 -324.8125 157.3125 C-323.15612574 163.59501045 -320.5727731 166.70973829 -315 170 C-298.35237776 178.11322202 -278.84981326 178.54536776 -260.6875 178.375 C-259.79546875 178.37034729 -258.9034375 178.36569458 -257.984375 178.36090088 C-244.14754874 178.27658272 -230.59964953 177.7538542 -217 175 C-216.03384766 174.80664062 -215.06769531 174.61328125 -214.07226562 174.4140625 C-190.17194735 169.46600939 -166.88840341 161.81366294 -145 151 C-143.61603027 150.32130859 -143.61603027 150.32130859 -142.20410156 149.62890625 C-129.54028915 143.36700102 -117.53844335 136.52994039 -105.984375 128.39648438 C-104.12454541 127.08764761 -102.25214571 125.79944382 -100.375 124.515625 C-92.81069928 119.28559112 -85.70239938 113.58583942 -78.68334961 107.64501953 C-77.66059937 106.78432861 -77.66059937 106.78432861 -76.6171875 105.90625 C-76.01503418 105.39384766 -75.41288086 104.88144531 -74.79248047 104.35351562 C-73 103 -73 103 -70.83642578 102.00585938 C-68.64810628 101.07788064 -68.64810628 101.07788064 -68 98 C-66.609375 96.6328125 -66.609375 96.6328125 -64.75 95.125 C-55.82205601 87.5483124 -47.44735183 79.03423481 -40 70 C-39.58459961 69.50902832 -39.16919922 69.01805664 -38.74121094 68.51220703 C-30.11737158 58.29724234 -22.81190846 47.49509552 -16 36 C-15.61328125 35.35063477 -15.2265625 34.70126953 -14.828125 34.03222656 C-8.50097769 23.25200546 -4.21912732 11.7365676 0 0 Z " fill="#D3B99C" transform="translate(350,149)"/>
<path d="M0 0 C6.6 0 13.2 0 20 0 C20 36.3 20 72.6 20 110 C15.05 110 10.1 110 5 110 C4.67 101.09 4.34 92.18 4 83 C0.535 87.95 0.535 87.95 -3 93 C-10.99332902 89.00333549 -15.76078583 79.13535356 -19 71 C-19 70.01 -19 69.02 -19 68 C-19.66 68 -20.32 68 -21 68 C-21.10957031 69.00417969 -21.21914062 70.00835937 -21.33203125 71.04296875 C-22.76159165 80.97005574 -28.06470918 91.9551781 -34 100 C-34.99 100.495 -34.99 100.495 -36 101 C-39 98 -42 95 -45 92 C-44.649375 91.2575 -44.29875 90.515 -43.9375 89.75 C-42.88399566 86.65972059 -42.93217045 85.98992275 -44 83 C-45.13473483 81.05163037 -46.32739546 79.13634147 -47.5625 77.25 C-48.20316406 76.26515625 -48.84382813 75.2803125 -49.50390625 74.265625 C-49.99761719 73.51796875 -50.49132813 72.7703125 -51 72 C-51.50789063 73.0621875 -52.01578125 74.124375 -52.5390625 75.21875 C-62.10691511 94.96586434 -62.10691511 94.96586434 -69 98 C-70.3421492 96.40320196 -71.67347115 94.79729803 -73 93.1875 C-73.7425 92.29417969 -74.485 91.40085937 -75.25 90.48046875 C-77 88 -77 88 -77 85 C-76.29875 84.62875 -75.5975 84.2575 -74.875 83.875 C-67.57042242 79.11114505 -64.22705751 70.1228426 -62 62 C-61.11148396 57.68511075 -60.50321775 53.37534588 -60 49 C-59.88785156 48.07960937 -59.77570313 47.15921875 -59.66015625 46.2109375 C-58.33997296 33.37079861 -57.65443721 19.54586048 -61 7 C-55.72 7 -50.44 7 -45 7 C-44.95101563 9.44792969 -44.90203125 11.89585937 -44.8515625 14.41796875 C-44.79728699 16.83428165 -44.740085 19.2505092 -44.68261719 21.66674805 C-44.64473925 23.32390776 -44.60982134 24.98113826 -44.578125 26.63842773 C-44.53857548 50.16862922 -44.53857548 50.16862922 -35 71 C-29.54771765 58.27800785 -28.53846775 45.4157708 -28.71875 31.76220703 C-28.75042389 29.34261877 -28.7597907 26.92368321 -28.765625 24.50390625 C-28.77477898 22.94790873 -28.78514958 21.39191777 -28.796875 19.8359375 C-28.80112488 19.12134369 -28.80537476 18.40674988 -28.80975342 17.67050171 C-28.8634842 13.91255725 -29.25456224 10.72718879 -30 7 C-24.72 7 -19.44 7 -14 7 C-13.95101563 9.37574219 -13.90203125 11.75148437 -13.8515625 14.19921875 C-13.79727653 16.54603421 -13.74007875 18.89276234 -13.68261719 21.23950195 C-13.64475515 22.84815742 -13.60983503 24.45688533 -13.578125 26.06567383 C-13.23514216 43.26304786 -12.77226943 62.26106909 -1 76 C0.65479393 77.34804029 2.32039049 78.68300818 4 80 C4.06969919 71.14172284 4.12291194 62.28354099 4.15543652 53.42504883 C4.17105153 49.31109895 4.19221302 45.19733753 4.22631836 41.08349609 C4.25906131 37.10883751 4.27688429 33.13435952 4.28463173 29.15957642 C4.29014857 27.64780843 4.30092134 26.13604964 4.31719017 24.62435913 C4.39731812 16.86603948 4.43488765 10.10763789 1 3 C0.505 1.515 0.505 1.515 0 0 Z " fill="#374958" transform="translate(1258,151)"/>
<path d="M0 0 C6.93 0 13.86 0 21 0 C21 36.3 21 72.6 21 110 C15.72 110 10.44 110 5 110 C4.67 104.39 4.34 98.78 4 93 C2.38996094 93.48726563 0.77992188 93.97453125 -0.87890625 94.4765625 C-10.94271841 96.79299913 -21.16446273 96.4476357 -31.44067383 96.39111328 C-34.95367603 96.37492546 -38.46554678 96.39107865 -41.97851562 96.41015625 C-44.22396086 96.40817562 -46.46940539 96.40433568 -48.71484375 96.3984375 C-49.75865707 96.40451019 -50.8024704 96.41058289 -51.87791443 96.4168396 C-57.32745811 96.36418159 -61.32167417 96.12138124 -66 93 C-70.6930164 88.05330704 -71.12116565 84.3708141 -71.1418457 77.72192383 C-71.14888016 76.4499263 -71.15591461 75.17792877 -71.16316223 73.86738586 C-71.16497812 73.18991114 -71.16679401 72.51243641 -71.16866493 71.81443214 C-71.17586635 69.68182856 -71.19156167 67.54945032 -71.21000671 65.41691589 C-71.2622913 59.35471766 -71.31038971 53.29264329 -71.32592773 47.23022461 C-71.33606765 43.51654178 -71.36554303 39.80342834 -71.40724754 36.08997154 C-71.41947855 34.6823732 -71.42469338 33.27469414 -71.42244911 31.86704445 C-71.41352687 24.44187194 -71.56419501 18.26226973 -75.14518738 11.63822937 C-76 10 -76 10 -76 8 C-68.58540058 7.97687117 -61.17080889 7.95908215 -53.75618076 7.94818783 C-50.31359652 7.94296018 -46.87103688 7.93586469 -43.4284668 7.92456055 C-39.47444957 7.91165765 -35.52044244 7.90677082 -31.56640625 7.90234375 C-29.70394005 7.89460182 -29.70394005 7.89460182 -27.80384827 7.88670349 C-26.66274094 7.88662796 -25.52163361 7.88655243 -24.34594727 7.88647461 C-23.335569 7.884254 -22.32519073 7.88203339 -21.28419495 7.87974548 C-19 8 -19 8 -18 9 C-18 12.96 -18 16.92 -18 21 C-30.21 21 -42.42 21 -55 21 C-55 41.46 -55 61.92 -55 83 C-47.265625 82.9175 -39.53125 82.835 -31.5625 82.75 C-29.13849854 82.73420898 -26.71449707 82.71841797 -24.21704102 82.70214844 C-22.27097241 82.67275235 -20.32492471 82.64192188 -18.37890625 82.609375 C-17.3885437 82.60824707 -16.39818115 82.60711914 -15.37780762 82.60595703 C-8.9627594 82.47534649 -3.46857669 81.55435962 2 78 C4.12280563 74.81579155 4.28019537 73.79462745 4.4140625 70.11328125 C4.44967285 69.26805908 4.4852832 68.42283691 4.52197266 67.55200195 C4.57297119 65.94844849 4.57297119 65.94844849 4.625 64.3125 C4.810625 59.2078125 4.810625 59.2078125 5 54 C-3.91 54 -12.82 54 -22 54 C-22 50.04 -22 46.08 -22 42 C-12.76 42 -3.52 42 6 42 C5.87625 37.91625 5.7525 33.8325 5.625 29.625 C5.59100098 28.35865723 5.55700195 27.09231445 5.52197266 25.78759766 C5.19108543 16.20983471 4.31406558 8.62813116 0 0 Z " fill="#324553" transform="translate(652,151)"/>
<path d="M0 0 C2.20876831 0.48218994 2.20876831 0.48218994 4.4621582 0.97412109 C12.15422707 2.36537611 19.81853581 2.35496447 27.60546875 2.4140625 C29.18159454 2.43281238 30.7577107 2.45238851 32.33381653 2.4727478 C36.4452237 2.52367212 40.55666328 2.56350792 44.66821289 2.60089111 C48.87849683 2.64118238 53.08865063 2.69215895 57.29882812 2.7421875 C65.53246892 2.83847555 73.76616527 2.92203828 82 3 C82 12.57 82 22.14 82 32 C59.89 32 37.78 32 15 32 C15 34.31 15 36.62 15 39 C37.44 39 59.88 39 83 39 C83 42.96 83 46.92 83 51 C73.45528816 51.09278251 63.91073217 51.16380665 54.36566734 51.20724869 C49.93323178 51.22810139 45.50110533 51.25637633 41.06884766 51.30175781 C36.78944496 51.34529877 32.51033912 51.36915454 28.23073196 51.37950897 C26.60006667 51.38688559 24.96941716 51.4012906 23.33887863 51.42292023 C21.05027223 51.45206509 18.76288396 51.45595156 16.47412109 51.45410156 C14.52220352 51.46742523 14.52220352 51.46742523 12.53085327 51.48101807 C8.3867627 50.91645696 6.23914672 49.59382516 3 47 C1.15173904 44.28053527 0.73625882 42.0652652 0.62109375 38.8125 C0.58693359 38.03132813 0.55277344 37.25015625 0.51757812 36.4453125 C0.49115234 35.63835937 0.46472656 34.83140625 0.4375 34 C0.3772745 32.39569508 0.31358945 30.7915155 0.24609375 29.1875 C0.22216553 28.47980469 0.1982373 27.77210938 0.17358398 27.04296875 C0.02470163 24.64680157 0.02470163 24.64680157 -1 21 C21.44 21 43.88 21 67 21 C67 19.02 67 17.04 67 15 C44.89 15 22.78 15 0 15 C0 10.05 0 5.1 0 0 Z " fill="#394B59" transform="translate(820,145)"/>
<path d="M0 0 C8.27579566 6.41336614 11.70700984 17.67522914 13.15234375 27.66796875 C15.4456834 67.69544449 15.4456834 67.69544449 4.15234375 80.66796875 C-1.12745914 85.94777164 -6.77246019 88.71127848 -14.22265625 89.10546875 C-21.7006277 88.83377775 -28.37174752 85.6622829 -33.84765625 80.66796875 C-44.84067472 64.76102037 -44.95599668 41.81503142 -41.59765625 23.41796875 C-39.29580322 13.6457501 -35.85321836 4.26633331 -27.07421875 -1.49609375 C-18.54646 -5.34617892 -7.99965825 -4.62865153 0 0 Z M-22.8203125 12.6953125 C-30.26723871 26.99454344 -30.54257543 50.15178881 -25.83984375 65.3125 C-23.08483598 72.03834289 -23.08483598 72.03834289 -17.84765625 76.66796875 C-14.3506342 77.05652676 -12.36071717 76.93671495 -9.22265625 75.29296875 C-1.60815193 66.87693766 -1.61401484 55.47558073 -1.55249023 44.76025391 C-1.54105204 43.37961512 -1.52073164 41.99901764 -1.4909668 40.61865234 C-1.27524321 30.58449265 -1.33510112 18.51619527 -8.09765625 10.35546875 C-11.24918525 8.42157595 -13.25847854 7.86374948 -16.921875 8.1328125 C-19.64280018 8.88893167 -21.21726798 10.41218848 -22.8203125 12.6953125 Z " fill="#344655" transform="translate(1000.84765625,161.33203125)"/>
<path d="M0 0 C6.26166536 6.32595351 9.76760834 12.15471299 10.27734375 21.234375 C10.0421087 29.37074021 6.46927421 36.30425548 0.9609375 42.16796875 C-10.94821874 52.31447947 -27.23832552 52.85120772 -42.09765625 51.921875 C-53.31842793 50.32608776 -63.17656916 46.25128293 -70.46875 37.3828125 C-75.01511084 30.51420979 -76.09414927 22.80439831 -74.734375 14.77734375 C-72.76429531 7.12485732 -67.48158344 1.05201631 -61.1171875 -3.4921875 C-43.49735975 -13.01052744 -15.50996396 -13.51706357 0 0 Z M-56.09765625 9.921875 C-60.07502495 14.77299061 -60.53075791 18.6419009 -60.09765625 24.921875 C-58.05503687 30.80942497 -53.98159017 35.02417099 -48.40527344 37.7487793 C-43.14978718 39.95165813 -38.38445964 40.43240108 -32.72265625 40.359375 C-31.4692041 40.34583984 -31.4692041 40.34583984 -30.19042969 40.33203125 C-22.71738734 40.12242508 -16.65037461 39.18564769 -10.984375 33.98046875 C-6.60901281 29.21930308 -4.68519726 25.72000895 -4.83203125 19.0390625 C-5.4240041 14.32069068 -7.56749884 11.30282619 -10.98046875 8.22265625 C-23.87853908 -1.32376498 -44.0193671 -0.5963018 -56.09765625 9.921875 Z " fill="#344655" transform="translate(779.09765625,162.078125)"/>
<path d="M0 0 C6.6 0 13.2 0 20 0 C20 9.24 20 18.48 20 28 C23.3 28 26.6 28 30 28 C29.88573199 24.4576917 29.75898128 20.91657181 29.625 17.375 C29.5940625 16.37597656 29.563125 15.37695312 29.53125 14.34765625 C29.49257812 13.37441406 29.45390625 12.40117187 29.4140625 11.3984375 C29.36693115 10.06304932 29.36693115 10.06304932 29.31884766 8.70068359 C29.01973734 5.38315909 29.01973734 5.38315909 27 0 C32.61 0 38.22 0 44 0 C44 25.41 44 50.82 44 77 C39.38 77 34.76 77 30 77 C30 64.79 30 52.58 30 40 C26.7 40 23.4 40 20 40 C20.00785522 41.62796509 20.00785522 41.62796509 20.01586914 43.28881836 C20.03391836 47.30117982 20.04543171 51.31353767 20.05493164 55.32592773 C20.05997204 57.06519168 20.0668043 58.80445136 20.07543945 60.54370117 C20.08751792 63.03825937 20.09323108 65.53276173 20.09765625 68.02734375 C20.10281754 68.80963852 20.10797882 69.59193329 20.11329651 70.39793396 C20.11349226 72.26567114 20.06199694 74.13329204 20 76 C19 77 19 77 15.83984375 77.09765625 C14.55207031 77.08605469 13.26429687 77.07445312 11.9375 77.0625 C10.00197266 77.04896484 10.00197266 77.04896484 8.02734375 77.03515625 C7.02832031 77.02355469 6.02929688 77.01195312 5 77 C4.99191315 76.20121933 4.98382629 75.40243866 4.97549438 74.57945251 C4.89738155 67.03211009 4.81004122 59.48495636 4.71247292 51.93784237 C4.66264025 48.05828833 4.61630969 44.17875982 4.578125 40.29907227 C4.54110677 36.55123512 4.49470328 32.80361848 4.44193649 29.05597115 C4.42348001 27.62996879 4.40834016 26.20391931 4.39665604 24.77784538 C4.37964362 22.77229291 4.34947948 20.76686531 4.31884766 18.76147461 C4.30552399 17.62230087 4.29220032 16.48312714 4.2784729 15.30943298 C3.81460036 9.79667008 2.04748415 5.11871037 0 0 Z " fill="#334554" transform="translate(1122,151)"/>
<path d="M0 0 C27.39 0 54.78 0 83 0 C83 12.87 83 25.74 83 39 C66.10082167 39.16043524 66.10082167 39.16043524 58.86328125 39.1953125 C53.93650956 39.21916734 49.01003697 39.24730057 44.08349609 39.30175781 C40.10882299 39.34541523 36.1344709 39.36917877 32.15957642 39.37950897 C30.64778596 39.38686487 29.13601186 39.401229 27.62435913 39.42292023 C12.70333364 39.62839277 12.70333364 39.62839277 6 35 C3.80562146 31.70843219 3.67437111 30.34361015 3.4375 26.484375 C3.36273437 25.39769531 3.28796875 24.31101563 3.2109375 23.19140625 C3.14132812 22.05574219 3.07171875 20.92007813 3 19.75 C2.86112751 17.51518157 2.71547056 15.28077272 2.5625 13.046875 C2.50191406 12.05526367 2.44132813 11.06365234 2.37890625 10.04199219 C1.99038514 6.28721121 1.99038514 6.28721121 0 0 Z M18 11 C18 16.28 18 21.56 18 27 C34.5 27 51 27 68 27 C68 21.72 68 16.44 68 11 C51.5 11 35 11 18 11 Z " fill="#354756" transform="translate(819,221)"/>
<path d="M0 0 C1.74011353 0.7266687 1.74011353 0.7266687 3.51538086 1.46801758 C10.43262786 3.75917731 17.55164453 3.48129057 24.75390625 3.51171875 C26.2656345 3.52859181 27.77734894 3.54674553 29.28904724 3.56611633 C33.23938684 3.61333787 37.18967045 3.64332627 41.14019775 3.66955566 C45.18277031 3.69950291 49.22515044 3.74598403 53.26757812 3.79101562 C61.17830611 3.87673144 69.08901521 3.9426855 77 4 C77 8.29 77 12.58 77 17 C67.1 17.33 57.2 17.66 47 18 C51.58774718 27.17549435 56.04163854 32.40055668 65.546875 36.2890625 C69.95450982 37.56643437 74.43179474 37.82922597 79 38 C78.71617054 39.75128818 78.42260471 41.50100003 78.125 43.25 C77.96257812 44.22453125 77.80015625 45.1990625 77.6328125 46.203125 C77.05144152 48.77264117 76.29159735 50.72071056 75 53 C62.25908268 49.42535392 48.57121708 44.89047017 40.33984375 33.75390625 C39.89769531 33.17511719 39.45554687 32.59632813 39 32 C38.34 32 37.68 32 37 32 C35.78919613 33.45296464 34.5815759 34.90880085 33.39648438 36.3828125 C25.3626723 45.68630397 13.3432351 49.53589826 2 53 C-0.63595772 50.36404228 -1.07702112 47.93812819 -2.125 44.375 C-2.47820312 43.18648437 -2.83140625 41.99796875 -3.1953125 40.7734375 C-3.46085937 39.85820312 -3.72640625 38.94296875 -4 38 C-3.17757813 37.98582031 -2.35515625 37.97164062 -1.5078125 37.95703125 C9.2703544 37.4965322 16.75569799 34.79142688 24.4296875 27.13671875 C26.71286872 24.03000201 28.27578392 20.44843215 30 17 C20.1 17 10.2 17 0 17 C0 11.39 0 5.78 0 0 Z " fill="#354756" transform="translate(428,144)"/>
<path d="M0 0 C6.27 0 12.54 0 19 0 C19 7.59 19 15.18 19 23 C32.53 23 46.06 23 60 23 C60 27.29 60 31.58 60 36 C26.67 36 -6.66 36 -41 36 C-41 30.06 -41 24.12 -41 18 C-38.525 18.99 -38.525 18.99 -36 20 C-31.28696442 21.84280755 -26.99132992 22.33278944 -21.9765625 22.4140625 C-21.23038666 22.43342865 -20.48421082 22.4527948 -19.71542358 22.4727478 C-17.35206223 22.53212065 -14.98865103 22.5787578 -12.625 22.625 C-11.01430268 22.66321884 -9.40362494 22.7022728 -7.79296875 22.7421875 C-3.86213984 22.83778676 0.06878463 22.921972 4 23 C3.78356337 20.99023125 3.56705632 18.98047003 3.35003662 16.97076416 C3.18472412 15.43121023 3.0231803 13.89125042 2.86376953 12.35107422 C2.7494458 11.33811279 2.7494458 11.33811279 2.6328125 10.3046875 C2.55949707 9.62390137 2.48618164 8.94311523 2.41064453 8.24169922 C1.89489065 5.42621042 0.90515077 2.71545232 0 0 Z " fill="#364856" transform="translate(736,219)"/>
<path d="M0 0 C6.93 0 13.86 0 21 0 C21 36.3 21 72.6 21 110 C16.05 110 11.1 110 6 110 C5.99413376 108.84900818 5.98826752 107.69801636 5.98222351 106.512146 C5.92482627 95.62580221 5.85197665 84.73965492 5.76428509 73.85351181 C5.7196988 68.25782482 5.68041709 62.66220867 5.65356445 57.06640625 C5.62741401 51.65866761 5.58692948 46.25120332 5.53681374 40.84363556 C5.52022409 38.78818443 5.50866091 36.73268593 5.50238609 34.67717743 C5.50875767 16.82130432 5.50875767 16.82130432 0 0 Z " fill="#344755" transform="translate(1028,151)"/>
<path d="M0 0 C1.73080811 0.64743164 3.46161621 1.29486328 5.24487305 1.96191406 C14.45275992 4.77929719 23.52403326 4.60504799 33.08203125 4.609375 C34.99160647 4.62438509 36.90116884 4.64111809 38.81071472 4.65948486 C43.79347386 4.70285322 48.77605797 4.7230892 53.75897217 4.73822021 C58.86090312 4.75790225 63.96264805 4.79985918 69.06445312 4.83984375 C79.04291093 4.91481465 89.02132645 4.96530574 99 5 C99 8.96 99 12.92 99 17 C85.14 17 71.28 17 57 17 C57 28.88 57 40.76 57 53 C52.71 53 48.42 53 44 53 C44 41.12 44 29.24 44 17 C29.48 17 14.96 17 0 17 C0 11.39 0 5.78 0 0 Z " fill="#324453" transform="translate(416,203)"/>
<path d="M0 0 C5.47410174 4.04226374 8.44676572 9.10736317 10.1953125 15.62109375 C10.99681951 24.53086935 11.3059108 33.89113588 6.1953125 41.62109375 C1.66879587 46.67680648 -2.92361911 50.13786767 -9.78515625 50.9921875 C-17.50832993 51.15210705 -23.5677451 50.44823904 -29.8046875 45.62109375 C-35.78973261 39.30008976 -37.81875818 32.12273142 -37.796875 23.56640625 C-37.22096511 13.52554255 -34.21317399 6.48825033 -26.8046875 -0.37890625 C-18.49374113 -5.5936177 -8.31830379 -4.720838 0 0 Z M-21.8046875 12.62109375 C-23.01816504 16.26152638 -23.0271847 19.64164561 -23.0546875 23.43359375 C-23.0753125 24.13291016 -23.0959375 24.83222656 -23.1171875 25.55273438 C-23.15303096 30.34231671 -22.38666342 33.58524821 -19.8046875 37.62109375 C-16.31664655 39.94645438 -14.90327996 39.95567273 -10.8046875 39.62109375 C-7.51888028 38.77617189 -6.86973159 37.7256289 -5.0546875 34.80859375 C-2.59880874 28.37203238 -2.58788871 19.95335335 -4.9921875 13.49609375 C-6.99112998 10.3253574 -8.35806435 9.0501814 -11.8046875 7.62109375 C-16.90517999 7.62109375 -18.1966266 9.17339111 -21.8046875 12.62109375 Z " fill="#344655" transform="translate(1105.8046875,155.37890625)"/>
<path d="M0 0 C6.6 0 13.2 0 20 0 C20 36.3 20 72.6 20 110 C15.38 110 10.76 110 6 110 C5.99453156 108.18835106 5.99453156 108.18835106 5.98895264 106.34010315 C5.95195286 94.93773408 5.89412544 83.53563383 5.81609726 72.13346958 C5.77664975 66.2719927 5.74444772 60.41066544 5.72900391 54.54907227 C5.71381963 48.88842716 5.67934194 43.22819348 5.63169098 37.56773186 C5.61689557 35.41211467 5.60896005 33.25643874 5.60811615 31.10077095 C5.60573927 28.07267929 5.57860067 25.04571798 5.54589844 22.01782227 C5.5509288 21.13380737 5.55595917 20.24979248 5.56114197 19.33898926 C5.4700825 13.86108509 4.40517443 9.81756308 1.95346451 4.90952969 C1 3 1 3 0 0 Z " fill="#2C3F4E" transform="translate(1258,151)"/>
<path d="M0 0 C3.04049801 3.64859761 4.96518762 7.7444533 7 12 C6.28714844 12.42410156 5.57429688 12.84820312 4.83984375 13.28515625 C-7.22802783 20.67530641 -15.42455275 29.35309525 -19.9375 43.125 C-22.9252807 56.02847792 -22.14875179 69.90152081 -15.57421875 81.51953125 C-14.13575986 83.76085091 -12.6136152 85.88239476 -11 88 C-9.88625 89.546875 -9.88625 89.546875 -8.75 91.125 C-4.94767373 95.10015928 -0.58078013 97.98755476 4 101 C4.99 101.66 5.98 102.32 7 103 C5.54955729 107.10958767 3.48889248 110.43258745 1 114 C0.773125 113.38125 0.54625 112.7625 0.3125 112.125 C-1.40446275 109.34515555 -2.996823 109.18730254 -6 108 C-20.09756236 98.6353715 -30.08476017 85.93909377 -33.58984375 69.1796875 C-35.9635742 50.77762479 -32.35372351 34.26845857 -20.9375 19.375 C-15.76169238 13.30711632 -9.6368938 8.38968155 -3 4 C-2.34 4 -1.68 4 -1 4 C-0.67 2.68 -0.34 1.36 0 0 Z " fill="#374958" transform="translate(408,147)"/>
<path d="M0 0 C5.94 0 11.88 0 18 0 C18 9.24 18 18.48 18 28 C38.46 28 58.92 28 80 28 C80 32.29 80 36.58 80 41 C71.36791865 41.06786775 62.73601548 41.12286895 54.10372734 41.15543652 C50.09509211 41.17106997 46.08664943 41.19226548 42.078125 41.22631836 C38.20721681 41.25899512 34.33649343 41.27687047 30.46545792 41.28463173 C28.99111142 41.29016037 27.51677466 41.30095651 26.04250717 41.31719017 C23.97196614 41.33907587 21.90218169 41.34196241 19.83154297 41.34057617 C18.06615677 41.35056892 18.06615677 41.35056892 16.2651062 41.36076355 C11.86730349 40.87484768 8.58689235 39.31329022 5.1875 36.5 C2.85990077 33.55987465 2.85047724 30.58644902 2.75390625 26.9921875 C2.70459961 25.51105469 2.70459961 25.51105469 2.65429688 24 C2.59379014 21.9401961 2.53642403 19.8802972 2.48242188 17.8203125 C2.26969647 11.6231798 1.54296306 6.00943506 0 0 Z " fill="#394A59" transform="translate(1088,219)"/>
<path d="M0 0 C0.66 0 1.32 0 2 0 C2 0.66 2 1.32 2 2 C2.57492187 2.2784375 3.14984375 2.556875 3.7421875 2.84375 C16.62109882 9.43917863 27.73782668 20.08549683 32.68017578 33.90136719 C37.61001743 49.37569745 37.22749631 64.06048884 30.15234375 78.8515625 C24.47149448 89.44297639 17.13939259 96.73092282 7.2109375 103.390625 C4.6259189 105.27229932 2.77184885 107.34222672 1 110 C-0.00842453 108.56839732 -1.00647891 107.12948547 -2 105.6875 C-2.8353125 104.48673828 -2.8353125 104.48673828 -3.6875 103.26171875 C-5 101 -5 101 -5 98 C-3.13671875 96.4296875 -3.13671875 96.4296875 -0.6875 94.875 C0.51326172 94.09769531 0.51326172 94.09769531 1.73828125 93.3046875 C4 92 4 92 7 91 C7 90.34 7 89.68 7 89 C8.6436814 87.31066078 10.3142876 85.64740076 12 84 C20.80197494 74.09777819 23.51109067 63.92150226 23.31640625 50.890625 C22.15743324 36.63954948 15.23231967 25.62287116 5 16 C1.78503771 13.74325767 -1.50746679 11.79366006 -5 10 C-3.85569823 6.12697862 -2.76679902 2.99736561 0 0 Z " fill="#364856" transform="translate(522,149)"/>
<path d="M0 0 C3.3203125 1.51367188 3.3203125 1.51367188 6.640625 3.02734375 C11.61225471 5.07690633 16.29503978 5.16781986 21.62402344 5.20532227 C22.92700127 5.22017166 22.92700127 5.22017166 24.25630188 5.23532104 C27.12396531 5.26687728 29.9916453 5.29167027 32.859375 5.31640625 C34.84906441 5.33698085 36.83874949 5.35797745 38.82843018 5.37937927 C44.06281024 5.43454768 49.29722941 5.48398005 54.53167725 5.53222656 C59.87401811 5.58247976 65.21630225 5.6381459 70.55859375 5.69335938 C81.03901403 5.80087698 91.51948359 5.90233618 102 6 C102 10.29 102 14.58 102 19 C68.34 19 34.68 19 0 19 C0 12.73 0 6.46 0 0 Z " fill="#344654" transform="translate(810,196)"/>
<path d="M0 0 C0 12.21 0 24.42 0 37 C-24.75 37 -49.5 37 -75 37 C-72.53664416 35.35776277 -70.85162354 34.48946493 -68.1328125 33.546875 C-44.97785946 25.26609202 -23.10605805 14.52191175 -2.58105469 0.97119141 C-1 0 -1 0 0 0 Z " fill="#2D404E" transform="translate(234,297)"/>
<path d="M0 0 C2.9375 2.0625 2.9375 2.0625 5 4 C5.680625 3.360625 6.36125 2.72125 7.0625 2.0625 C10.55005359 -0.38620784 12.76556351 -0.84877013 17 -1 C21.52480453 0.05228012 23.4548547 2.1905455 26 6 C26.45410156 9.04614258 26.45410156 9.04614258 26.390625 12.39453125 C26.37773438 13.59658203 26.36484375 14.79863281 26.3515625 16.03710938 C26.31804688 17.28298828 26.28453125 18.52886719 26.25 19.8125 C26.23195313 21.07771484 26.21390625 22.34292969 26.1953125 23.64648438 C26.14823916 26.76509335 26.08249094 29.88215973 26 33 C23.66705225 33.04241723 21.33297433 33.04092937 19 33 C17.29013248 31.29013248 17.78999704 29.02500942 17.71875 26.6875 C17.66267578 25.07488281 17.66267578 25.07488281 17.60546875 23.4296875 C17.5 20 17.5 20 17.39453125 16.5703125 C17.33845703 14.95769531 17.33845703 14.95769531 17.28125 13.3125 C17.25095703 12.31863281 17.22066406 11.32476562 17.18945312 10.30078125 C17.25272441 8.03716014 17.25272441 8.03716014 16 7 C12.63370749 6.85363946 10.21580438 6.92806521 7 8 C6.67 16.25 6.34 24.5 6 33 C3.36 33 0.72 33 -2 33 C-2.495 20.13 -2.495 20.13 -3 7 C-10.41528686 6.13587291 -10.41528686 6.13587291 -12.96801758 8.67480469 C-14.14880055 11.33526766 -14.42720513 13.2958565 -14.51171875 16.203125 C-14.54716797 17.1828125 -14.58261719 18.1625 -14.61914062 19.171875 C-14.64169922 20.18765625 -14.66425781 21.2034375 -14.6875 22.25 C-14.72166016 23.28125 -14.75582031 24.3125 -14.79101562 25.375 C-14.87338093 27.91655812 -14.94256834 30.45777626 -15 33 C-17.31 33 -19.62 33 -22 33 C-22 22.11 -22 11.22 -22 0 C-19.69 0 -17.38 0 -15 0 C-14.67 0.99 -14.34 1.98 -14 3 C-13.401875 2.525625 -12.80375 2.05125 -12.1875 1.5625 C-7.95485834 -1.46081547 -4.94026299 -1.10730033 0 0 Z " fill="#B9A789" transform="translate(902,301)"/>
<path d="M0 0 C5.29286516 1.76428839 7.36639761 7.31002314 10 12 C14.25852119 20.93505673 16.32066781 29.4543135 16.1953125 39.3125 C16.1924826 40.16682617 16.18965271 41.02115234 16.18673706 41.90136719 C16.17563879 44.60106053 16.15055427 47.30040877 16.125 50 C16.11495679 51.84244309 16.1058333 53.68489143 16.09765625 55.52734375 C16.0757335 60.01835994 16.04127646 64.50912168 16 69 C11.71 69 7.42 69 3 69 C2.98541748 67.93152832 2.97083496 66.86305664 2.95581055 65.76220703 C2.89733925 61.75488711 2.82011459 57.74810078 2.73754883 53.74121094 C2.70452714 52.0150628 2.67642625 50.28881259 2.65356445 48.5625 C2.49255209 36.72295297 2.0533712 26.58786983 -4.125 16.125 C-5.911347 13.07665662 -7.3354297 10.48494179 -8 7 C-6.74057614 5.80040625 -5.46704714 4.61560557 -4.1875 3.4375 C-3.12595703 2.44556641 -3.12595703 2.44556641 -2.04296875 1.43359375 C-1.36878906 0.96050781 -0.69460938 0.48742187 0 0 Z " fill="#314352" transform="translate(274,265)"/>
<path d="M0 0 C-1.03000882 5.23486834 -2.24051273 10.03900818 -4.51171875 14.8828125 C-5.96972986 21.20474867 -3.1163374 26.24924207 0.0625 31.4375 C0.62807617 32.39172852 0.62807617 32.39172852 1.20507812 33.36523438 C2.12640502 34.91632902 3.06176593 36.45907343 4 38 C-0.69395907 39.56465302 -4.63981365 36.94455962 -9.01953125 35.09375 C-13.08216946 33.4596162 -15.72727127 32.39855735 -20 34 C-22.81942836 35.26552223 -25.568098 36.6424743 -28.3125 38.0625 C-29.42334961 38.62807617 -29.42334961 38.62807617 -30.55664062 39.20507812 C-32.37387522 40.13128157 -34.18732404 41.06490629 -36 42 C-35.80027588 41.40155273 -35.60055176 40.80310547 -35.39477539 40.18652344 C-34.88362106 38.65147247 -34.37619465 37.11517845 -33.87109375 35.578125 C-33.30816965 33.91207161 -32.71867026 32.25465888 -32.09765625 30.609375 C-31.81792969 29.85140625 -31.53820312 29.0934375 -31.25 28.3125 C-30.98703125 27.62800781 -30.7240625 26.94351563 -30.453125 26.23828125 C-29.28881759 20.48700412 -31.77477923 16.13836693 -34.5625 11.25 C-38 5.19114688 -38 5.19114688 -38 3 C-33.38761779 3.54909312 -30.11263275 4.90171799 -26 7 C-21.9052268 8.66144246 -19.27049374 9.41029937 -15.1484375 7.83984375 C-10.58829367 5.69965355 -4.76647205 0 0 0 Z " fill="#D0B496" transform="translate(367,83)"/>
<path d="M0 0 C3.125 2 3.125 2 5 5 C5.71565715 10.00960008 5.58636796 11.94453767 3.125 16.375 C1 19 1 19 -1 21 C0.98 23.31 2.96 25.62 5 28 C5.99 24.7 6.98 21.4 8 18 C9.65 17.67 11.3 17.34 13 17 C14 18 14 18 14.3125 20.9375 C14.28071575 26.02298015 12.056326 30.43752669 10 35 C10.90492188 35.38285156 10.90492188 35.38285156 11.828125 35.7734375 C14.23512659 37.13278732 15.22956265 38.34434398 16.75 40.625 C17.17796875 41.25664062 17.6059375 41.88828125 18.046875 42.5390625 C18.36140625 43.02117187 18.6759375 43.50328125 19 44 C17.56344146 44.08131463 16.1255517 44.13933559 14.6875 44.1875 C13.48673828 44.23970703 13.48673828 44.23970703 12.26171875 44.29296875 C9.52148416 43.93801608 8.70828921 43.10633718 7 41 C2.92035719 42.30155006 2.92035719 42.30155006 -1 44 C-7.17877357 44.52499383 -12.79823328 44.77128087 -18 41 C-20.40777323 38.11067212 -20.96115399 36.30521864 -21.4375 32.5625 C-20.91606726 28.31654773 -19.73082959 26.26182423 -17 23 C-14.859375 21.83203125 -14.859375 21.83203125 -13 21 C-13.30035156 20.43152344 -13.60070312 19.86304688 -13.91015625 19.27734375 C-15.80906115 15.42160126 -16.98015665 12.59530049 -17.125 8.25 C-15.98054576 4.94379887 -14.80590156 2.96651901 -11.9453125 0.88671875 C-8.02777457 -0.89898629 -4.16650797 -0.84578032 0 0 Z M-7 5 C-9.30746414 6.87773264 -9.30746414 6.87773264 -9.25 9.9375 C-9.23517754 13.17282787 -9.23517754 13.17282787 -7 16 C-5.35 15.34 -3.7 14.68 -2 14 C-1.32326553 10.59679066 -1.32326553 10.59679066 -1 7 C-1.66 6.34 -2.32 5.68 -3 5 C-4.32 5 -5.64 5 -7 5 Z M-11.0625 25.5 C-13.91823569 29.18482024 -13.51829304 31.4094045 -13 36 C-10.00261059 37.99825961 -9.36652492 38.27550398 -6 38.25 C-5.319375 38.25515625 -4.63875 38.2603125 -3.9375 38.265625 C-1.67583993 38.09917603 -1.67583993 38.09917603 1 36 C-0.43370397 30.74308545 -3.99603099 27.48214849 -8 24 C-9.29025661 23.90197138 -9.29025661 23.90197138 -11.0625 25.5 Z " fill="#B8A789" transform="translate(1006,290)"/>
<path d="M0 0 C4.71754289 2.84151502 7.79731086 6.09297539 9.69140625 11.29296875 C11.61741534 19.99802298 11.29043282 28.18582832 6.78515625 35.98046875 C3.91804217 39.79582109 0.81492727 41.46663883 -3.71484375 42.9765625 C-16.32198972 43.92255325 -16.32198972 43.92255325 -21.71484375 39.9765625 C-27.42201444 34.53484161 -29.17158971 28.24498713 -30.15234375 20.5390625 C-29.30107273 13.6072842 -27.53439462 7.08366231 -22.15234375 2.3515625 C-16.03714159 -2.36082046 -7.10394683 -2.67803463 0 0 Z M-15.71484375 6.9765625 C-21.0929339 12.63771003 -21.04677845 16.93290882 -21.0078125 24.5390625 C-20.53824678 30.04863367 -18.54676862 32.14463763 -14.71484375 35.9765625 C-9.73622224 36.81367585 -5.88022736 36.80204255 -1.71484375 33.8515625 C1.97717502 28.54428551 3.06510794 23.39616486 2.28515625 16.9765625 C1.32302922 13.0508033 0.2318344 9.92324065 -2.65234375 7.0390625 C-7.56772038 4.50689878 -10.46562235 4.91436838 -15.71484375 6.9765625 Z " fill="#B8A788" transform="translate(762.71484375,291.0234375)"/>
<path d="M0 0 C2.31 0 4.62 0 7 0 C8.94863925 1.94863925 8.1291874 4.8980872 8.13894653 7.49121094 C8.1369223 8.40161133 8.13489807 9.31201172 8.1328125 10.25 C8.13376923 11.17844727 8.13472595 12.10689453 8.13571167 13.06347656 C8.13639355 15.03059965 8.13453872 16.99772496 8.13037109 18.96484375 C8.12502295 21.98703026 8.13031582 25.00906815 8.13671875 28.03125 C8.13605797 29.93750033 8.13477681 31.84375057 8.1328125 33.75 C8.13483673 34.66040039 8.13686096 35.57080078 8.13894653 36.50878906 C8.11494969 42.88505031 8.11494969 42.88505031 7 44 C4.66702567 44.04092937 2.33294775 44.04241723 0 44 C-0.33 43.01 -0.66 42.02 -1 41 C-1.61875 41.495 -2.2375 41.99 -2.875 42.5 C-7.30041287 44.62419818 -11.1723404 44.68082379 -16 44 C-20.02217921 42.17173672 -21.57604941 40.69245262 -23.875 36.9375 C-26.14143383 30.61319961 -26.0907842 23.59701905 -23.25 17.5 C-21.53390068 14.58620636 -20.12712899 12.4766998 -17 11 C-10.80709325 9.57867714 -7.58541362 10.03631114 -2 13 C-1.67 13.33 -1.34 13.66 -1 14 C-0.67 9.38 -0.34 4.76 0 0 Z M-15.5 18.8125 C-17.72646116 23.54372996 -17.88502228 27.86687077 -17 33 C-14.57735169 36.63397247 -13.25788015 37.73794164 -9 38.625 C-5.88710584 38.15114624 -5.88710584 38.15114624 -3.125 36.25 C-0.00635713 31.48031091 0.10763472 26.5534513 -1 21 C-2.84606473 18.58436169 -4.05568082 17.26743414 -7 16.43359375 C-10.64716647 16.44071712 -12.47884678 16.62216392 -15.5 18.8125 Z " fill="#BBAA8C" transform="translate(1267,290)"/>
<path d="M0 0 C9.57 0 19.14 0 29 0 C29 1.98 29 3.96 29 6 C22.4 6.33 15.8 6.66 9 7 C9 10.63 9 14.26 9 18 C14.94 18.33 20.88 18.66 27 19 C27 20.98 27 22.96 27 25 C20.73 25 14.46 25 8 25 C8.33 28.96 8.66 32.92 9 37 C15.6 37.33 22.2 37.66 29 38 C29 39.98 29 41.96 29 44 C25.03069011 44.02465881 21.06140966 44.04284023 17.09204102 44.05493164 C15.74079614 44.05997057 14.38955674 44.06680177 13.03833008 44.07543945 C11.09979566 44.08752419 9.161222 44.09269828 7.22265625 44.09765625 C5.47094116 44.10551147 5.47094116 44.10551147 3.68383789 44.11352539 C1 44 1 44 0 43 C-0.09268999 41.64905018 -0.11747326 40.29332909 -0.11352539 38.93920898 C-0.11344986 38.07839218 -0.11337433 37.21757538 -0.11329651 36.33067322 C-0.10813522 35.39526199 -0.10297394 34.45985077 -0.09765625 33.49609375 C-0.0962413 32.54307877 -0.09482635 31.59006378 -0.09336853 30.60816956 C-0.08775152 27.55124835 -0.07519616 24.49439923 -0.0625 21.4375 C-0.05748719 19.37044376 -0.05292391 17.30338638 -0.04882812 15.23632812 C-0.03862558 10.15750167 -0.01905356 5.07883194 0 0 Z " fill="#BAAA8C" transform="translate(950,290)"/>
<path d="M0 0 C2.64 0 5.28 0 8 0 C8.33 4.29 8.66 8.58 9 13 C10.485 12.2265625 10.485 12.2265625 12 11.4375 C16.18613909 9.66644115 19.6854403 9.51658744 24 11 C27.98870913 14.05518146 29.30393764 16.12487599 30 21 C30.08824347 22.75354763 30.13058518 24.50985986 30.1328125 26.265625 C30.13474609 27.72355469 30.13474609 27.72355469 30.13671875 29.2109375 C30.13285156 30.21382813 30.12898437 31.21671875 30.125 32.25 C30.13080078 33.77753906 30.13080078 33.77753906 30.13671875 35.3359375 C30.13542969 36.30273438 30.13414062 37.26953125 30.1328125 38.265625 C30.13168457 39.15024414 30.13055664 40.03486328 30.12939453 40.94628906 C30 43 30 43 29 44 C26.66702567 44.04092937 24.33294775 44.04241723 22 44 C21.98018066 43.39003174 21.96036133 42.78006348 21.93994141 42.15161133 C21.84432124 39.37149467 21.73479295 36.59209154 21.625 33.8125 C21.5940625 32.85279297 21.563125 31.89308594 21.53125 30.90429688 C21.49257813 29.97294922 21.45390625 29.04160156 21.4140625 28.08203125 C21.36693115 26.80162964 21.36693115 26.80162964 21.31884766 25.49536133 C20.96650422 22.73785578 20.12928753 20.53000031 19 18 C14.40197005 17.54276999 14.40197005 17.54276999 10.29931641 19.19482422 C8.58530353 21.57614914 8.58775655 23.15085532 8.5234375 26.0703125 C8.47703125 27.53791016 8.47703125 27.53791016 8.4296875 29.03515625 C8.41164063 30.05480469 8.39359375 31.07445312 8.375 32.125 C8.3242211 34.14853936 8.26973946 36.17199039 8.2109375 38.1953125 C8.19337402 39.09266113 8.17581055 39.99000977 8.15771484 40.91455078 C8 43 8 43 7 44 C4.69 44 2.38 44 0 44 C0 29.48 0 14.96 0 0 Z " fill="#BAA98B" transform="translate(647,290)"/>
<path d="M0 0 C1.90234375 1.10546875 1.90234375 1.10546875 4.58984375 3.10546875 C3.83984375 7.85546875 3.83984375 7.85546875 1.58984375 10.10546875 C1.02136719 9.80511719 0.45289063 9.50476563 -0.1328125 9.1953125 C-5.25726071 6.67158592 -8.70565193 5.31582034 -14.41015625 7.10546875 C-17.27957738 9.37080122 -18.24923237 10.62269712 -19.41015625 14.10546875 C-19.5563514 16.3939852 -19.63106961 18.68747191 -19.66015625 20.98046875 C-19.6859375 22.19476563 -19.71171875 23.4090625 -19.73828125 24.66015625 C-19.29391765 29.32597408 -17.67478992 31.84083508 -14.41015625 35.10546875 C-8.16551814 35.89115034 -2.79530143 35.59853589 2.58984375 32.10546875 C3.86823542 34.21105503 4.57716162 35.68695859 4.65234375 38.16796875 C3.26248403 40.70241882 1.55045931 41.56475174 -1.11328125 42.56640625 C-7.02891801 43.95476998 -13.08492143 43.86645469 -18.84765625 41.98046875 C-24.51502679 37.83361226 -27.86632704 32.92895816 -29.41015625 26.10546875 C-30.51033596 18.04151416 -29.04963393 11.81096384 -24.41015625 5.10546875 C-18.25059316 -1.59305611 -8.53459371 -3.16762068 0 0 Z " fill="#B9A889" transform="translate(1056.41015625,290.89453125)"/>
<path d="M0 0 C1.5778125 0.99 1.5778125 0.99 3.1875 2 C2.5275 3.98 1.8675 5.96 1.1875 8 C-3.5625 7.125 -3.5625 7.125 -5.8125 6 C-10.31459659 5.52155419 -14.39673129 5.11514456 -18.3125 7.5625 C-22.37356504 14.16173069 -22.22832932 20.60115 -20.8125 28 C-19.10385521 31.78665053 -19.10385521 31.78665053 -15.8125 34 C-9.74896412 34.56709328 -5.09142008 34.33405479 0.1875 31 C3.1875 35.75 3.1875 35.75 3.1875 38 C-3.4864915 42.10707169 -9.02011446 43.00682236 -16.8125 42 C-21.95757236 40.643803 -24.86525322 38.38754972 -27.75 33.9375 C-31.55492194 27.21762092 -31.50888281 20.57923616 -30.8125 13 C-29.28965476 7.59176458 -26.81930018 3.30284166 -22.3125 -0.125 C-15.49744316 -3.7519526 -6.82296645 -3.38118586 0 0 Z " fill="#B9A789" transform="translate(1110.8125,292)"/>
<path d="M0 0 C3.92248631 4.49650869 5.3063886 8.54712689 5.9375 14.4375 C5.33470776 20.06356092 4.17329511 24.36697477 0.0625 28.375 C-5.17097865 31.64592416 -10.44370852 31.40979016 -16.4375 30.9375 C-21.19602474 29.293646 -23.63319483 27.09202617 -26.4375 22.9375 C-28.44888947 16.9033316 -28.51506502 10.17244967 -25.75 4.4375 C-19.08079312 -2.77245339 -8.85150933 -6.57224568 0 0 Z M-18.4375 6.9375 C-20.13215856 12.02147567 -20.31149264 17.03060696 -18.0625 21.9375 C-16.58663969 24.03466677 -16.58663969 24.03466677 -14.4375 24.9375 C-9.3816603 25.44751121 -9.3816603 25.44751121 -5.0625 23.125 C-2.13429386 19.18318404 -2.10728032 15.72568534 -2.4375 10.9375 C-3.84210697 8.06444028 -5.18260999 6.19239001 -7.4375 3.9375 C-12.11047467 3.50481716 -15.08638894 3.45750005 -18.4375 6.9375 Z " fill="#B9A789" transform="translate(1145.4375,303.0625)"/>
<path d="M0 0 C2.64 0 5.28 0 8 0 C8.01981934 0.71655762 8.03963867 1.43311523 8.06005859 2.17138672 C8.15509519 5.4063063 8.26486019 8.64056094 8.375 11.875 C8.4059375 13.00292969 8.436875 14.13085938 8.46875 15.29296875 C8.50742187 16.36933594 8.54609375 17.44570313 8.5859375 18.5546875 C8.6173584 19.54968262 8.6487793 20.54467773 8.68115234 21.56982422 C8.77247083 24.17854517 8.77247083 24.17854517 11 26 C14.32889148 26.43420324 16.25847933 26.45569816 19.1484375 24.6796875 C22.11601161 20.38484396 21.67878166 15.85182276 21.75 10.75 C21.79447266 9.203125 21.79447266 9.203125 21.83984375 7.625 C21.91044778 5.08325505 21.96319009 2.54242217 22 0 C24.64 0 27.28 0 30 0 C30 10.89 30 21.78 30 33 C27.36 33 24.72 33 22 33 C21.67 32.01 21.34 31.02 21 30 C20.360625 30.495 19.72125 30.99 19.0625 31.5 C14.4530957 33.75766741 9.84607221 33.79264441 4.91015625 32.41796875 C1.90533646 30.187397 0.84136681 27.53191652 0 24 C-0.34180078 19.84442204 -0.28392031 15.72835202 -0.1875 11.5625 C-0.17396484 10.44939453 -0.16042969 9.33628906 -0.14648438 8.18945312 C-0.11132997 5.45912788 -0.06212106 2.72982256 0 0 Z " fill="#B8A788" transform="translate(841,301)"/>
<path d="M0 0 C3.0737955 2.42313806 4.45986845 4.41192441 6.23046875 7.953125 C6.23046875 10.923125 6.23046875 13.893125 6.23046875 16.953125 C-1.35953125 16.953125 -8.94953125 16.953125 -16.76953125 16.953125 C-16.10953125 19.263125 -15.44953125 21.573125 -14.76953125 23.953125 C-8.26338999 25.79309707 -2.04295942 25.52683912 4.23046875 22.953125 C4.89046875 24.603125 5.55046875 26.253125 6.23046875 27.953125 C0.28175817 32.67106787 -5.40290815 32.48070809 -12.76953125 31.953125 C-18.06268788 30.22081919 -20.61148127 27.37439497 -23.76953125 22.953125 C-25.75389581 18.22117873 -25.14223229 13.09084395 -23.58203125 8.328125 C-20.96702949 3.45881138 -18.60694565 0.71582532 -13.45703125 -1.421875 C-8.62710372 -2.24050678 -4.34480601 -2.57043711 0 0 Z M-15.76953125 7.953125 C-16.09953125 9.603125 -16.42953125 11.253125 -16.76953125 12.953125 C-11.48953125 12.953125 -6.20953125 12.953125 -0.76953125 12.953125 C-0.29040999 8.16389229 -0.29040999 8.16389229 -2.39453125 5.640625 C-7.53588892 1.98755508 -11.6814627 3.63145253 -15.76953125 7.953125 Z " fill="#B8A789" transform="translate(707.76953125,302.046875)"/>
<path d="M0 0 C3.2740944 2.55813764 5.21534498 4.96309277 6.15234375 8.9921875 C6.15234375 11.6321875 6.15234375 14.2721875 6.15234375 16.9921875 C-1.43765625 16.9921875 -9.02765625 16.9921875 -16.84765625 16.9921875 C-16.18765625 19.3021875 -15.52765625 21.6121875 -14.84765625 23.9921875 C-8.34151499 25.83215957 -2.12108442 25.56590162 4.15234375 22.9921875 C4.81234375 24.6421875 5.47234375 26.2921875 6.15234375 27.9921875 C0.21676761 32.69971341 -5.48908885 32.62638596 -12.84765625 31.9921875 C-17.01941762 30.9979513 -19.78546941 29.55529199 -22.22265625 25.96875 C-24.90584683 20.50920249 -25.95887473 15.65671136 -24.15234375 9.69921875 C-22.10994214 4.43874736 -20.04812142 1.59242009 -14.84765625 -1.0078125 C-9.96089597 -2.54365144 -4.56709863 -2.49114471 0 0 Z M-15.84765625 7.9921875 C-16.17765625 9.6421875 -16.50765625 11.2921875 -16.84765625 12.9921875 C-11.23765625 12.9921875 -5.62765625 12.9921875 0.15234375 12.9921875 C-1.00317351 6.08742991 -1.00317351 6.08742991 -4.84765625 3.9921875 C-9.90052585 3.33311755 -12.34769024 4.29222344 -15.84765625 7.9921875 Z " fill="#B8A788" transform="translate(827.84765625,302.0078125)"/>
<path d="M0 0 C11.55 0 23.1 0 35 0 C35 2.31 35 4.62 35 7 C30.38 7 25.76 7 21 7 C21 19.21 21 31.42 21 44 C18.69 44 16.38 44 14 44 C13 43 13 43 12.88647461 39.58178711 C12.88663372 38.06363012 12.89232774 36.54546771 12.90234375 35.02734375 C12.9037587 34.22970108 12.90517365 33.43205841 12.90663147 32.61024475 C12.91224684 30.05262565 12.92480188 27.49509282 12.9375 24.9375 C12.94251302 23.20768355 12.94707627 21.47786574 12.95117188 19.74804688 C12.96222125 15.49866447 12.97949614 11.24934688 13 7 C8.71 7 4.42 7 0 7 C0 4.69 0 2.38 0 0 Z " fill="#B9A88A" transform="translate(607,290)"/>
<path d="M0 0 C2.64 0 5.28 0 8 0 C8 12.21 8 24.42 8 37 C14.6 37 21.2 37 28 37 C28 39.31 28 41.62 28 44 C18.76 44 9.52 44 0 44 C0 29.48 0 14.96 0 0 Z " fill="#BBA98C" transform="translate(1187,290)"/>
<path d="M0 0 C2.64 0 5.28 0 8 0 C8 2.64 8 5.28 8 8 C10.97 8 13.94 8 17 8 C17 9.98 17 11.96 17 14 C14.03 14 11.06 14 8 14 C8.33 20.27 8.66 26.54 9 33 C11.97 33.33 14.94 33.66 18 34 C18.33 35.98 18.66 37.96 19 40 C15.31313877 41.84343062 11.03302333 41.3556682 7 41 C3.99802604 39.74917752 2.5787747 38.94219137 0.88720703 36.18847656 C-0.12223308 33.69848725 -0.22965965 31.91345285 -0.1953125 29.234375 C-0.18564453 27.90019531 -0.18564453 27.90019531 -0.17578125 26.5390625 C-0.15902344 25.61867188 -0.14226562 24.69828125 -0.125 23.75 C-0.11597656 22.81414062 -0.10695313 21.87828125 -0.09765625 20.9140625 C-0.07413636 18.60911343 -0.04126853 16.3046884 0 14 C-2.31 14 -4.62 14 -7 14 C-7 12.02 -7 10.04 -7 8 C-4.69 8 -2.38 8 0 8 C0 5.36 0 2.72 0 0 Z " fill="#B9A788" transform="translate(1221,293)"/>
<path d="M0 0 C0 2.31 0 4.62 0 7 C-0.69867187 7.17015625 -1.39734375 7.3403125 -2.1171875 7.515625 C-3.02726563 7.75796875 -3.93734375 8.0003125 -4.875 8.25 C-5.77992188 8.48203125 -6.68484375 8.7140625 -7.6171875 8.953125 C-10.55921383 10.24568739 -10.84737973 11.06582411 -12 14 C-12.36097744 16.31392665 -12.36097744 16.31392665 -12.4140625 18.765625 C-12.47207031 20.09980469 -12.47207031 20.09980469 -12.53125 21.4609375 C-12.57765625 22.84152344 -12.57765625 22.84152344 -12.625 24.25 C-12.68300781 25.65378906 -12.68300781 25.65378906 -12.7421875 27.0859375 C-12.83624844 29.39043054 -12.92189399 31.69492013 -13 34 C-15.33294775 34.04241723 -17.66702567 34.04092937 -20 34 C-21 33 -21 33 -21.11352539 29.94897461 C-21.11336634 28.60008729 -21.10767612 27.25119386 -21.09765625 25.90234375 C-21.0962413 25.19348526 -21.09482635 24.48462677 -21.09336853 23.75428772 C-21.08775443 21.48198288 -21.07519963 19.20977525 -21.0625 16.9375 C-21.05748681 15.40039204 -21.05292359 13.86328255 -21.04882812 12.32617188 C-21.03778042 8.55074358 -21.02050641 4.77538829 -21 1 C-18.36 1 -15.72 1 -13 1 C-12.67 1.99 -12.34 2.98 -12 4 C-11.13375 3.2884375 -11.13375 3.2884375 -10.25 2.5625 C-6.68959973 0.08999981 -4.34379465 0 0 0 Z " fill="#B9A88A" transform="translate(801,300)"/>
<path d="M0 0 C2.64 0 5.28 0 8 0 C6.75971762 6.17222879 5.10396411 12.06682122 3 18 C1.35 18 -0.3 18 -2 18 C-1.85860519 15.74971671 -1.71171997 13.49977794 -1.5625 11.25 C-1.48128906 9.99703125 -1.40007812 8.7440625 -1.31640625 7.453125 C-1.07484478 4.81682447 -0.75716066 2.51962706 0 0 Z " fill="#BAA98B" transform="translate(1172,327)"/>
<path d="M0 0 C1.14803863 3.37655582 0.84743832 5.32010508 -0.29296875 8.66796875 C-0.59396484 9.56193359 -0.89496094 10.45589844 -1.20507812 11.37695312 C-1.52927734 12.30443359 -1.85347656 13.23191406 -2.1875 14.1875 C-2.49236328 15.09564453 -2.79722656 16.00378906 -3.11132812 16.93945312 C-8.68061835 33.25035134 -8.68061835 33.25035134 -12.75 35.5625 C-13.4925 35.706875 -14.235 35.85125 -15 36 C-13.59609737 32.30665615 -11.95266114 28.77635634 -10.23242188 25.22436523 C-6.24314369 16.97084694 -2.87031022 8.70752764 0 0 Z " fill="#CFB398" transform="translate(350,149)"/>
<path d="M0 0 C2.97 0 5.94 0 9 0 C9 2.97 9 5.94 9 9 C2.84765625 9.09765625 2.84765625 9.09765625 1 9 C0 8 0 8 -0.09765625 6.15234375 C-0.06510417 4.1015625 -0.03255208 2.05078125 0 0 Z " fill="#C0B196" transform="translate(1156,325)"/>
<path d="M0 0 C1 3 1 3 0 6 C-2.5625 7.1875 -2.5625 7.1875 -5 8 C-3.8141763 4.62496331 -2.72426311 2.35277269 0 0 Z " fill="#CBAC8F" transform="translate(340,177)"/>
<path d="M0 0 C1 4 1 4 1 4 Z " fill="#D0B49A" transform="translate(351,145)"/>
<path d="M0 0 C1 4 1 4 1 4 Z " fill="#D8C0AA" transform="translate(352,140)"/>
<path d="M0 0 C1 4 1 4 1 4 Z " fill="#E9DCCF" transform="translate(353,135)"/>
<path d="" fill="#E7D9C5" transform="translate(0,0)"/>
<path d="" fill="#E3D1BE" transform="translate(0,0)"/>
</svg>
