<?xml version="1.0" encoding="UTF-8"?>
<svg version="1.1" xmlns="http://www.w3.org/2000/svg" width="2318" height="630">
<path d="M0 0 C4.38709319 4.10221701 7.80886514 8.63467514 11.3125 13.5 C16.5346842 20.67595311 21.84793763 27.77100577 27.25 34.8125 C31.65501414 40.56270799 36.01683927 46.32719384 40.1875 52.25 C45.45969321 59.7279067 51.03112883 66.96825227 56.62475586 74.20751953 C57.07858643 74.79903809 57.53241699 75.39055664 58 76 C58.51592366 76.56646618 59.03184732 77.13293236 59.56340504 77.71656418 C61.46270111 80.73545315 61.36944982 82.77187513 61.36076355 86.32745361 C61.36694954 88.27937119 61.36694954 88.27937119 61.3732605 90.27072144 C61.36264366 91.71075647 61.35173924 93.15078941 61.34057617 94.59082031 C61.33972987 96.10863223 61.34020511 97.62644538 61.34190369 99.14425659 C61.34276494 103.26383057 61.32511823 107.38314286 61.30418181 111.50265598 C61.28543665 115.80813332 61.28366628 120.11361657 61.28010559 124.41912842 C61.27077877 132.57180878 61.24615638 140.72436856 61.21605712 148.8769958 C61.18253293 158.15863619 61.16603209 167.44028232 61.15097082 176.72196817 C61.11960737 195.81471383 61.06683449 214.90734722 61 234 C62.24185059 234.14477783 63.48370117 234.28955566 64.76318359 234.4387207 C68.85884771 234.91620276 72.70651521 235.92215595 76.625 237.1875 C77.3159375 237.40962158 78.006875 237.63174316 78.71875 237.8605957 C109.38246409 247.95196223 134.80570576 267.97674978 150.01171875 296.69921875 C154.55797422 305.7460145 157.55360057 315.19671139 160 325 C160.2475 325.96808594 160.495 326.93617188 160.75 327.93359375 C166.75703986 356.67561085 159.3990112 387.46154474 144 412 C132.45408672 429.01953142 117.38922453 441.24613746 100 452 C104.62 454.97 109.24 457.94 114 461 C109.5 466.625 109.5 466.625 106.328125 468.89453125 C105.66425781 469.37470703 105.00039063 469.85488281 104.31640625 470.34960938 C103.63449219 470.83236328 102.95257813 471.31511719 102.25 471.8125 C101.55261719 472.31458984 100.85523438 472.81667969 100.13671875 473.33398438 C98.42892362 474.5621932 96.7150646 475.78196283 95 477 C94.13761719 476.55269531 93.27523438 476.10539062 92.38671875 475.64453125 C82.23922958 470.56021489 72.02981254 467.57639324 61 465 C61.12568359 466.51182861 61.12568359 466.51182861 61.25390625 468.05419922 C63.32613129 495.28903976 63.32613129 495.28903976 59.80029297 502.4296875 C56.45041831 506.0163582 52.09781459 507.47359582 47.53662109 509.02832031 C43.79391325 510.46200436 40.49882651 512.51149652 37.06835938 514.56665039 C27.44258965 520.31592986 17.45622369 525.4156156 7.4375 530.4375 C6.30924805 531.00436523 5.18099609 531.57123047 4.01855469 532.15527344 C-17.85666162 543 -17.85666162 543 -23 543 C-23 454.89 -23 366.78 -23 276 C-48.24987947 295.63879514 -62.60110958 319.50042448 -66.72068429 351.3759253 C-67.55820299 359.24412448 -67.43960191 367.16443316 -67.43237305 375.06713867 C-67.44141611 377.099478 -67.45174944 379.13181193 -67.46325684 381.16413879 C-67.49055448 386.61740009 -67.50007384 392.07055717 -67.50611091 397.52387786 C-67.51556636 403.24669795 -67.54177487 408.96944232 -67.56611633 414.69221497 C-67.60958936 425.50052022 -67.63825375 436.30881061 -67.66143972 447.11717635 C-67.68859497 459.43423446 -67.73249964 471.75121566 -67.77772844 484.06821859 C-67.87029941 509.37877055 -67.94210553 534.68934662 -68 560 C-75.69414407 563.33178769 -75.69414407 563.33178769 -79.1484375 564.203125 C-80.19064453 564.46609375 -80.19064453 564.46609375 -81.25390625 564.734375 C-81.95386719 564.90453125 -82.65382813 565.0746875 -83.375 565.25 C-84.09816406 565.435625 -84.82132813 565.62125 -85.56640625 565.8125 C-87.36598832 566.25817511 -89.18221791 566.63559613 -91 567 C-92.76990911 565.23009089 -92.12776914 562.87344156 -92.1384055 560.51549065 C-92.1360826 559.32532446 -92.1360826 559.32532446 -92.13371277 558.1111145 C-92.13597833 557.27428694 -92.13824388 556.43745937 -92.14057809 555.57527339 C-92.14694895 552.74824797 -92.14608671 549.92127012 -92.14526367 547.09423828 C-92.14825362 545.07568296 -92.15165577 543.05712821 -92.15544128 541.03857422 C-92.16431153 535.53339799 -92.16662092 530.02823728 -92.16725707 524.5230546 C-92.16796695 521.07906717 -92.17010028 517.63508371 -92.17275429 514.19109726 C-92.18202423 502.16108703 -92.18608794 490.1310879 -92.18530273 478.10107422 C-92.18470449 466.91732605 -92.195202 455.73362652 -92.2110464 444.54989064 C-92.2241783 434.93521338 -92.22948413 425.32055188 -92.22884732 415.70586574 C-92.22859359 409.97024575 -92.23137429 404.23466877 -92.24202538 398.49905777 C-92.25179927 393.08676276 -92.25172272 387.67455097 -92.24450874 382.26225281 C-92.24347368 380.29001111 -92.2457605 378.31776398 -92.2518692 376.34553146 C-92.29727137 360.65217908 -92.13535717 344.44060715 -87.75 329.25 C-87.53311523 328.47035889 -87.31623047 327.69071777 -87.09277344 326.88745117 C-81.85891319 308.65641948 -73.65131593 292.1995539 -61 278 C-60.30390625 277.17242187 -59.6078125 276.34484375 -58.890625 275.4921875 C-49.31133216 264.33965314 -37.78921563 255.22403394 -25 248 C-24.34 248 -23.68 248 -23 248 C-23 182 -23 116 -23 48 C-27.56955313 49.81432631 -27.56955313 49.81432631 -31.390625 52.3984375 C-32.00856934 52.87144287 -32.62651367 53.34444824 -33.26318359 53.83178711 C-33.91883301 54.34104736 -34.57448242 54.85030762 -35.25 55.375 C-40.88322961 59.67630167 -46.56850134 63.87295094 -52.375 67.9375 C-58.28458809 72.07855495 -64.15791038 76.26420167 -70 80.5 C-75.80553095 84.70704228 -81.63522 88.8759547 -87.5 93 C-96.39076572 99.25432876 -105.19833001 105.6211553 -114 112 C-123.49766801 118.88325617 -133.01432033 125.73384082 -142.60791016 132.48291016 C-150.00717957 137.69537171 -157.33870589 143.00031239 -164.66796875 148.31054688 C-168.75595022 151.27210799 -172.84652122 154.23008133 -176.9375 157.1875 C-177.70118896 157.74042725 -178.46487793 158.29335449 -179.25170898 158.86303711 C-179.96141846 159.37616455 -180.67112793 159.88929199 -181.40234375 160.41796875 C-182.33808228 161.09508911 -182.33808228 161.09508911 -183.29272461 161.78588867 C-184.84109387 162.88699554 -186.41912991 163.94608661 -188 165 C-188.44099943 168.15441246 -188.44099943 168.15441246 -188.34057617 171.92822266 C-188.34101425 172.64052536 -188.34145233 173.35282806 -188.34190369 174.0867157 C-188.3398101 176.44610812 -188.31645325 178.80479391 -188.29296875 181.1640625 C-188.2873748 182.79787813 -188.28310375 184.43169878 -188.28010559 186.06552124 C-188.26864094 190.36960702 -188.23916008 194.67338998 -188.20599365 198.97735596 C-188.17532751 203.36767479 -188.16160767 207.75804247 -188.14648438 212.1484375 C-188.11429171 220.7657641 -188.06307608 229.3828444 -188 238 C-187.50447632 237.64023071 -187.00895264 237.28046143 -186.49841309 236.90979004 C-168.94285809 224.17260736 -168.94285809 224.17260736 -160.5 218.5 C-153.23989557 213.58370283 -146.10301508 208.52020501 -139.04882812 203.3125 C-138.35724609 202.80589844 -137.66566406 202.29929688 -136.953125 201.77734375 C-136.05835449 201.11593384 -136.05835449 201.11593384 -135.14550781 200.44116211 C-132.20089512 198.46323212 -129.07987161 196.75992664 -126 195 C-126 320.4 -126 445.8 -126 575 C-143 578 -143 578 -149 578 C-149.33 466.79 -149.66 355.58 -150 241 C-155.61 244.96 -161.22 248.92 -167 253 C-169.59294922 254.82724609 -169.59294922 254.82724609 -172.23828125 256.69140625 C-172.93244141 257.18060547 -173.62660156 257.66980469 -174.34179688 258.17382812 C-175.70608497 259.13518475 -177.07068949 260.09609242 -178.43554688 261.05664062 C-179.45165039 261.77303711 -179.45165039 261.77303711 -180.48828125 262.50390625 C-181.07134033 262.91455322 -181.65439941 263.3252002 -182.25512695 263.74829102 C-182.83093506 264.16135498 -183.40674316 264.57441895 -184 265 C-185.0283581 265.61866096 -185.0283581 265.61866096 -186.0774911 266.24982011 C-188.21009337 267.848769 -188.21009337 267.848769 -188.50205535 270.37840998 C-188.50303216 271.32754845 -188.50400896 272.27668693 -188.50501537 273.25458717 C-188.52126171 274.89807607 -188.52126171 274.89807607 -188.53783625 276.57476676 C-188.52517245 278.38743601 -188.52517245 278.38743601 -188.51225281 280.23672485 C-188.52244634 282.15673925 -188.52244634 282.15673925 -188.5328458 284.11554182 C-188.55122629 287.67565707 -188.54465803 291.23536238 -188.53414643 294.7954936 C-188.52716248 298.63193538 -188.54318518 302.46828738 -188.55648804 306.30470276 C-188.57642346 312.95414744 -188.58183249 319.60347736 -188.57755089 326.25294876 C-188.5714677 335.86809634 -188.58829868 345.48309697 -188.61096082 355.09821479 C-188.64719826 370.69861134 -188.66633602 386.29897906 -188.67407227 401.89941406 C-188.68163703 417.0533989 -188.69473472 432.2073573 -188.71704102 447.36132812 C-188.71841171 448.29490417 -188.71978241 449.22848021 -188.72119465 450.19034643 C-188.73631081 460.37444549 -188.7530394 470.55854134 -188.77101612 480.74263573 C-188.77258809 481.63673554 -188.77416006 482.53083535 -188.77577967 483.4520291 C-188.78872553 490.81033458 -188.78872553 490.81033458 -188.79479728 494.17229061 C-188.81364207 504.65120048 -188.82750246 515.13009097 -188.83259294 525.609017 C-188.83582494 532.17807662 -188.84207374 538.74712815 -188.8507212 545.31618287 C-188.85646023 549.84379782 -188.85806391 554.37138829 -188.85648732 558.89900628 C-188.85658915 562.27175952 -188.86310972 565.64449392 -188.86869812 569.01724243 C-188.86694775 570.23015005 -188.86519738 571.44305766 -188.86339396 572.69272006 C-188.86790544 574.32838571 -188.86790544 574.32838571 -188.87250805 575.99709511 C-188.8729978 576.94590888 -188.87348755 577.89472265 -188.87399215 578.87228835 C-189 581 -189 581 -190 582 C-197.59 582 -205.18 582 -213 582 C-213.33 484.32 -213.66 386.64 -214 286 C-219.94 290.29 -225.88 294.58 -232 299 C-240.875 305.125 -240.875 305.125 -244.7421875 307.7578125 C-246.35480469 308.86769531 -246.35480469 308.86769531 -248 310 C-248.71671883 310.44827284 -249.43343766 310.89654568 -250.17187524 311.35840255 C-252.16773462 312.83947888 -252.16773462 312.83947888 -252.50320601 315.07178324 C-252.5047249 315.87565118 -252.50624378 316.67951912 -252.50780869 317.5077467 C-252.52498007 318.90135616 -252.52498007 318.90135616 -252.54249835 320.32311934 C-252.53085772 321.8566635 -252.53085772 321.8566635 -252.51898193 323.42118835 C-252.53023381 325.04824533 -252.53023381 325.04824533 -252.541713 326.70817214 C-252.56209444 330.3612222 -252.55386673 334.01365775 -252.54589844 337.66674805 C-252.55462773 340.27800108 -252.56511123 342.88924876 -252.57722473 345.50048828 C-252.60056799 351.13172299 -252.60928391 356.76282882 -252.60811615 362.39410973 C-252.60644883 370.5360032 -252.62676199 378.67772457 -252.65247145 386.81957219 C-252.69358302 400.02855081 -252.7168731 413.23749853 -252.72900391 426.4465332 C-252.74082716 439.27924572 -252.76101375 452.11190004 -252.79248047 464.94458008 C-252.79441657 465.73534574 -252.79635267 466.52611139 -252.79834744 467.34083965 C-252.80811182 471.30780698 -252.81804097 475.27477387 -252.82805204 479.24174058 C-252.9109145 512.16113544 -252.96487475 545.08051906 -253 578 C-258.63624342 578.23952163 -263.48573392 577.38279585 -268.9375 576 C-269.71673828 575.80921875 -270.49597656 575.6184375 -271.29882812 575.421875 C-273.20099248 574.9550862 -275.10076009 574.47854864 -277 574 C-277.3665222 539.42603458 -277.64830357 504.85251394 -277.81704527 470.27702416 C-277.83705568 466.1916783 -277.85776492 462.10633626 -277.87890625 458.02099609 C-277.88310322 457.20770599 -277.88730018 456.39441588 -277.89162433 455.55648062 C-277.96117614 442.40137669 -278.0872874 429.24739572 -278.23444474 416.09295717 C-278.38426942 402.58706113 -278.47298141 389.08175161 -278.50541592 375.5750587 C-278.52733157 367.24530268 -278.59643449 358.91872058 -278.72666347 350.58994225 C-278.81149196 344.87216661 -278.83674861 339.15602216 -278.81602204 333.43766353 C-278.80580523 330.14062665 -278.82985672 326.85025323 -278.9072876 323.55395317 C-279.33638315 304.34032273 -279.33638315 304.34032273 -275.46741867 298.80887127 C-271.81943326 295.09737584 -267.69882283 292.5199145 -263.10166836 290.13691378 C-259.62200884 288.25456501 -256.46123229 285.92612623 -253.25 283.625 C-251.92996511 282.7229444 -250.60873754 281.82262515 -249.28515625 280.92578125 C-244.39139819 277.59452282 -239.53796697 274.20637301 -234.6875 270.8125 C-233.88795898 270.25449707 -233.08841797 269.69649414 -232.26464844 269.12158203 C-230.71289701 268.03535603 -229.17536399 266.92844454 -227.65499878 265.79870605 C-225 264 -225 264 -222.13973999 262.71591187 C-218.52280263 260.84322359 -216.47484157 259.26641253 -214 256 C-212.31699403 249.69445069 -212.92561225 242.93215422 -213.20194817 236.4763279 C-213.34177613 233.09784157 -213.40566581 229.72542556 -213.44911194 226.34440613 C-213.58583734 216.74213868 -213.85647443 207.14522455 -214.1809082 197.54760742 C-214.37455887 191.66372497 -214.47893972 185.78338604 -214.53164864 179.89664268 C-214.57010021 177.66526562 -214.64298324 175.43418694 -214.75211906 173.2051487 C-215.5768988 156.2758288 -215.5768988 156.2758288 -211.30025101 150.83922958 C-207.1043542 146.92950552 -202.4072771 144.0881437 -197.38699532 141.36347008 C-193.36227061 139.06451638 -189.71033383 136.26738639 -186 133.5 C-184.5029517 132.41568756 -183.00444206 131.33338731 -181.50390625 130.25390625 C-178.48907481 128.07670977 -175.47625306 125.89677083 -172.46484375 123.71484375 C-164.47643988 117.9301375 -156.45884181 112.1920321 -148.39208984 106.51708984 C-140.20813928 100.75185476 -132.105709 94.87446007 -124 89 C-114.50233199 82.11674383 -104.98567967 75.26615918 -95.39208984 68.51708984 C-87.20813928 62.75185476 -79.105709 56.87446007 -71 51 C-61.50233199 44.11674383 -51.98567967 37.26615918 -42.39208984 30.51708984 C-34.99712351 25.30765963 -27.67008255 20.00556694 -20.34521484 14.69824219 C-16.19153197 11.69043268 -12.03293796 8.68942303 -7.875 5.6875 C-6.35154199 4.58726799 -4.8281025 3.48701031 -3.3046875 2.38671875 C-2.203125 1.59114583 -1.1015625 0.79557292 0 0 Z M1 262 C1 320.74 1 379.48 1 440 C63.43925599 441.97503027 63.43925599 441.97503027 113 413 C130.34463601 394.94753904 138.97507583 371.97402271 139 347 C138.14658825 325.44496545 130.58120719 305.06490898 116 289 C115.16210938 288.04609375 114.32421875 287.0921875 113.4609375 286.109375 C95.61128652 266.56455858 69.3489043 256.70105353 43.3125 255.125 C28.69926342 254.49685601 14.82337192 257.39220936 1 262 Z " fill="#CCB093" transform="translate(365,0)"/>
<path d="M0 0 C0.33 0 0.66 0 1 0 C-0.06290756 50.34316719 -28.05090074 101.65657181 -56 142 C-56.60642334 142.87664307 -56.60642334 142.87664307 -57.22509766 143.77099609 C-63.48672073 152.77750824 -70.13029648 161.45051637 -77 170 C-77.75023437 170.93457031 -78.50046875 171.86914062 -79.2734375 172.83203125 C-81.49577779 175.57184789 -83.74044964 178.29078787 -86 181 C-86.4336084 181.51997559 -86.8672168 182.03995117 -87.31396484 182.57568359 C-102.69423972 200.94852517 -119.63978095 217.76986102 -136.62426758 234.64013672 C-138.08507328 236.0911847 -139.54406498 237.54406498 -141 239 C-140.3709375 239.825 -139.741875 240.65 -139.09375 241.5 C-118.45379111 269.11855877 -114.47927711 297.72686538 -114.79400635 331.3717041 C-114.82513779 335.05959863 -114.83849005 338.7475578 -114.85351562 342.43554688 C-114.88533363 349.62387064 -114.93628092 356.8118805 -115 364 C-117.43716215 365.21858107 -119.03274057 365.12925575 -121.75390625 365.1328125 C-122.69041016 365.13410156 -123.62691406 365.13539063 -124.59179688 365.13671875 C-126.06229492 365.13091797 -126.06229492 365.13091797 -127.5625 365.125 C-129.03879883 365.13080078 -129.03879883 365.13080078 -130.54492188 365.13671875 C-131.48013672 365.13542969 -132.41535156 365.13414062 -133.37890625 365.1328125 C-134.2407251 365.13168457 -135.10254395 365.13055664 -135.99047852 365.12939453 C-138 365 -138 365 -139 364 C-139.1026497 362.09592866 -139.13572204 360.18807646 -139.1418457 358.28125 C-139.14888016 357.05486816 -139.15591461 355.82848633 -139.16316223 354.56494141 C-139.16497812 353.90375305 -139.16679401 353.2425647 -139.16866493 352.56134033 C-139.17584552 350.48138427 -139.19153401 348.40166212 -139.21000671 346.32177734 C-139.26232701 340.40498528 -139.31020928 334.48830621 -139.32592773 328.57128906 C-139.40246244 303.60065234 -140.1499782 276.72897147 -158 257 C-163.19931846 257 -165.25316894 259.33493085 -169 262.5625 C-181.2412382 272.79860973 -194.01522219 282.34183994 -207.125 291.4375 C-207.79402344 291.90430176 -208.46304687 292.37110352 -209.15234375 292.85205078 C-213.75496285 296 -213.75496285 296 -216 296 C-215.99777939 296.84968857 -215.99555878 297.69937714 -215.99327087 298.57481384 C-215.97326986 306.56536725 -215.95802684 314.5559123 -215.94818783 322.54648495 C-215.94295954 326.65494285 -215.93586287 330.76338014 -215.92456055 334.87182617 C-215.91372975 338.83346828 -215.90772276 342.79509052 -215.90512276 346.75674629 C-215.90326886 348.27148311 -215.8996489 349.78621879 -215.89426994 351.30094719 C-215.88705693 353.41541813 -215.88600917 355.52980594 -215.88647461 357.64428711 C-215.884254 358.85007919 -215.88203339 360.05587128 -215.87974548 361.29820251 C-216 364 -216 364 -217 365 C-218.78115036 365.09330991 -220.56603784 365.11575185 -222.34962463 365.1111145 C-223.51112534 365.1107872 -224.67262604 365.1104599 -225.86932373 365.11012268 C-227.15582825 365.10488083 -228.44233276 365.09963898 -229.76782227 365.09423828 C-231.12802571 365.09236 -232.48822998 365.09101459 -233.84843445 365.09016418 C-236.78895878 365.08787375 -239.72946617 365.08314005 -242.66998482 365.07696915 C-247.34357164 365.06855647 -252.01707638 365.07400829 -256.69065857 365.08297729 C-257.87576227 365.0851838 -257.87576227 365.0851838 -259.08480746 365.08743489 C-260.70162528 365.09050637 -262.31844301 365.09362642 -263.93526065 365.09679389 C-274.81541142 365.11790764 -285.6953001 365.1319946 -296.57543945 365.09960938 C-303.91041534 365.07787763 -311.24492059 365.08153871 -318.57986683 365.11301792 C-322.45196645 365.12868457 -326.32316808 365.1325309 -330.19522285 365.10525894 C-347.91213397 364.98864207 -363.76810231 366.15398141 -380.65592575 372.19263077 C-386.17078285 374.09211238 -391.88413371 375.31752484 -397.5625 376.625 C-398.80515625 376.91149414 -400.0478125 377.19798828 -401.328125 377.49316406 C-415.45032904 380.66251527 -429.66509453 383.02908929 -444 385 C-445.76005371 385.2477417 -445.76005371 385.2477417 -447.55566406 385.50048828 C-494.45631552 391.85778152 -547.03458893 391.09568049 -591 372 C-591.70688965 371.69336426 -592.4137793 371.38672852 -593.14208984 371.07080078 C-612.23048866 362.58853372 -629.09017853 349.27938917 -637.4375 329.61328125 C-640.74350912 320.92561523 -644.14468589 311.92195519 -640.140625 302.94921875 C-636.47485152 296.68476338 -632.17321394 291.91285705 -625 290 C-616.90821837 288.90280927 -610.75636241 290.41172403 -604 295 C-601.5625 297.4375 -601.5625 297.4375 -600 300 C-599.46375 300.845625 -598.9275 301.69125 -598.375 302.5625 C-597.07782236 305.80544409 -596.55918981 308.44136176 -596.0625 311.875 C-594.68314201 320.74230139 -591.82120444 326.22764682 -584.8359375 331.9921875 C-555.83341849 352.52565137 -514.43898905 353.23636864 -480.1875 353.1875 C-479.33184448 353.18656342 -478.47618896 353.18562683 -477.59460449 353.18466187 C-430.79671138 353.0742946 -384.51674053 345.39908384 -340 331 C-338.8234082 330.61972656 -337.64681641 330.23945312 -336.43457031 329.84765625 C-310.03962198 321.22139401 -284.83748774 310.38343384 -260 298 C-259.09975098 297.55188965 -258.19950195 297.1037793 -257.27197266 296.64208984 C-235.97176556 285.9583398 -215.59290448 273.54968261 -196 260 C-195.27345215 259.49871582 -194.5469043 258.99743164 -193.79833984 258.48095703 C-169.72732338 241.81884618 -146.96366374 223.32289095 -125.51513672 203.40185547 C-123.94515396 201.9492546 -122.36624227 200.50690908 -120.78515625 199.06640625 C-111.41906229 190.51602838 -102.11140716 181.84534581 -93.890625 172.16796875 C-91.91404221 169.9014327 -89.86280313 167.71383542 -87.80053711 165.52539062 C-81.56625922 158.88962956 -75.8801608 151.96440326 -70.34570312 144.73974609 C-69.03571511 143.04617306 -67.70318237 141.3738501 -66.359375 139.70703125 C-33.45044847 98.80515949 -9.88756824 51.68912169 0 0 Z " fill="#F9F9FA" transform="translate(642,242)"/>
<path d="M0 0 C5.39346988 -0.02464849 10.78690725 -0.04283531 16.18041992 -0.05493164 C18.01668875 -0.05997231 19.85295354 -0.06680477 21.68920898 -0.07543945 C24.32276401 -0.08751672 26.95626616 -0.09323081 29.58984375 -0.09765625 C30.41588608 -0.10281754 31.24192841 -0.10797882 32.09300232 -0.11329651 C34.06236368 -0.11349205 36.03161614 -0.06204152 38 0 C39.7381007 1.7381007 39.12500138 3.98994682 39.13374341 6.30669594 C39.13151268 7.07350874 39.12928196 7.84032154 39.12698364 8.63037109 C39.12854363 9.43906332 39.13010362 10.24775555 39.13171089 11.0809536 C39.13572425 13.81179968 39.13252995 16.54259093 39.12939453 19.2734375 C39.13074842 21.22267693 39.13252829 23.1719161 39.13470459 25.12115479 C39.13928036 30.43091707 39.13748878 35.74066002 39.1343255 41.05042267 C39.13180264 46.59399978 39.13413923 52.13757517 39.13571167 57.68115234 C39.13753358 66.99251606 39.13512649 76.30387186 39.13037109 85.61523438 C39.12492843 96.39715649 39.12669107 107.17905971 39.1321975 117.96098137 C39.13672801 127.20000814 39.13737948 136.4390292 39.13475883 145.67805672 C39.13319572 151.20405513 39.13300323 156.73004463 39.13629532 162.25604248 C39.13917314 167.44993734 39.13719998 172.6438077 39.13140106 177.83769989 C39.13007298 179.74977325 39.13046838 181.66184865 39.13266373 183.5739212 C39.13537337 186.17251876 39.1319964 188.77103651 39.12698364 191.36962891 C39.12921436 192.13644171 39.13144509 192.90325451 39.13374341 193.69330406 C39.11414985 198.88585015 39.11414985 198.88585015 38 200 C35.92737924 200.08767112 33.85179706 200.10695873 31.77734375 200.09765625 C30.64288818 200.09515869 29.50843262 200.09266113 28.33959961 200.09008789 C26.88690674 200.08098389 25.43421387 200.07187988 23.9375 200.0625 C19.338125 200.041875 14.73875 200.02125 10 200 C10 189.11 10 178.22 10 167 C6.349375 168.175625 6.349375 168.175625 2.625 169.375 C-13.85611259 174.54677943 -29.987798 175.15908525 -47.171875 175.16796875 C-48.67108184 175.1711954 -50.17028839 175.17456043 -51.66949463 175.17805481 C-54.78211192 175.18398013 -57.8947017 175.18590125 -61.00732422 175.18530273 C-64.96638562 175.18520066 -68.92526954 175.19892948 -72.88428879 175.21607494 C-75.96949047 175.22726038 -79.05464982 175.22922006 -82.13986969 175.22869301 C-83.59889597 175.22986032 -85.05792381 175.23421042 -86.51692963 175.24202538 C-99.55086324 175.30539992 -113.41571643 175.19534595 -123.4375 165.6875 C-127.64909303 158.44355999 -128.43616729 152.38316835 -128.38476562 144.15625 C-128.39282478 142.56907921 -128.39282478 142.56907921 -128.40104675 140.94984436 C-128.41079564 138.66206685 -128.41377768 136.37425249 -128.41069031 134.0864563 C-128.40619046 130.45191013 -128.42027738 126.81784534 -128.43908691 123.18334961 C-128.47580235 115.45557421 -128.4895529 107.72784972 -128.5 100 C-128.51212572 91.06613015 -128.53395643 82.13249538 -128.58000183 73.19873047 C-128.59344637 69.64280634 -128.58942277 66.08718901 -128.58459473 62.53125 C-128.25531434 40.74380752 -128.25531434 40.74380752 -135.9140625 20.796875 C-137 19 -137 19 -138 15 C-103.68 15 -69.36 15 -34 15 C-34 22.92 -34 30.84 -34 39 C-55.78 39 -77.56 39 -100 39 C-100 75.96 -100 112.92 -100 151 C-86.0575 150.9175 -72.115 150.835 -57.75 150.75 C-51.17916504 150.72631348 -51.17916504 150.72631348 -44.47558594 150.70214844 C-40.50269184 150.66887376 -40.50269184 150.66887376 -36.52984619 150.63043213 C-34.77875147 150.61594639 -33.02758276 150.60905152 -31.27642822 150.60845947 C-12.7166578 150.77972845 -12.7166578 150.77972845 3.125 142.0625 C3.82882812 141.41410156 4.53265625 140.76570312 5.2578125 140.09765625 C9.10692357 135.46318843 9.32339887 130.68269673 9.4140625 124.85546875 C9.44052856 123.83096619 9.44052856 123.83096619 9.4675293 122.7857666 C9.53022735 120.2532432 9.5766682 117.7203383 9.625 115.1875 C9.74875 109.515625 9.8725 103.84375 10 98 C-6.17 98 -22.34 98 -39 98 C-39 91.07 -39 84.14 -39 77 C-22.83 77 -6.66 77 10 77 C9.94872978 69.40431684 9.88547102 61.81060331 9.79248047 54.21557617 C9.76441419 51.63686606 9.74312905 49.05807221 9.72900391 46.47924805 C9.70737543 42.7526608 9.660622 39.02706535 9.609375 35.30078125 C9.60753204 33.59683952 9.60753204 33.59683952 9.60565186 31.85847473 C9.40501062 20.66411808 7.05242195 10.81552744 0 2 C0 1.34 0 0.68 0 0 Z " fill="#F7F8F8" transform="translate(1183,274)"/>
<path d="M0 0 C10.23 0 20.46 0 31 0 C31.03738281 4.90488281 31.07476563 9.80976563 31.11328125 14.86328125 C31.14363698 18.01240173 31.17483398 21.16147079 31.20898438 24.31054688 C31.26284594 29.28439381 31.31396599 34.25813911 31.34643555 39.23217773 C30.40197938 81.06646593 30.40197938 81.06646593 49 117 C51.94529724 110.19072267 54.05821961 103.49603877 55.625 96.25 C55.94355957 94.80765991 55.94355957 94.80765991 56.26855469 93.33618164 C60.14827118 75.40978619 61.21841655 57.5998855 61.29516602 39.30688477 C61.30673327 37.39209634 61.32725913 35.47734132 61.35668945 33.56274414 C61.63438946 19.04687204 61.63438946 19.04687204 57.86401367 5.16430664 C57 3 57 3 57 0 C60.96930989 -0.02465881 64.93859034 -0.04284023 68.90795898 -0.05493164 C70.25920386 -0.05997057 71.61044326 -0.06680177 72.96166992 -0.07543945 C74.90020434 -0.08752419 76.838778 -0.09269828 78.77734375 -0.09765625 C80.52905884 -0.10551147 80.52905884 -0.10551147 82.31616211 -0.11352539 C85 0 85 0 86 1 C86.11217559 2.47359495 86.15673833 3.9524134 86.17358398 5.43017578 C86.18707382 6.37692169 86.20056366 7.3236676 86.21446228 8.29910278 C86.23011986 9.85647659 86.23011986 9.85647659 86.24609375 11.4453125 C86.27912431 13.66146091 86.31233391 15.87760666 86.34570312 18.09375 C86.39243275 21.57256446 86.43665018 25.05137678 86.47680664 28.53027344 C86.69594041 81.50493726 86.69594041 81.50493726 111 127 C113.88803574 129.50625808 116.86674093 131.80961981 120 134 C118.72598605 137.51832123 117.25703223 140.25812527 114.9609375 143.20703125 C114.09082031 144.33334961 114.09082031 144.33334961 113.203125 145.48242188 C112.59984375 146.25134766 111.9965625 147.02027344 111.375 147.8125 C110.76398437 148.60076172 110.15296875 149.38902344 109.5234375 150.20117188 C108.0207657 152.13820974 106.51286614 154.07092079 105 156 C101.03568178 154.67856059 99.35433356 152.12798025 96.875 148.9375 C96.39071533 148.31552734 95.90643066 147.69355469 95.4074707 147.05273438 C87.04605589 136.03392187 81.10181545 123.80455642 76 111 C74.16844885 113.74732673 73.37874337 115.63027977 72.44140625 118.734375 C69.05089712 129.61390158 65.33541831 140.13518661 60.4375 150.4375 C60.0031665 151.3646582 59.56883301 152.29181641 59.12133789 153.24707031 C56.09262954 159.44530476 52.43034036 164.71894389 48 170 C45.00750173 168.65486855 42.90254939 167.15881341 40.58203125 164.84765625 C39.66067383 163.93016602 39.66067383 163.93016602 38.72070312 162.99414062 C38.09099609 162.35669922 37.46128906 161.71925781 36.8125 161.0625 C35.85053711 160.11213867 35.85053711 160.11213867 34.86914062 159.14257812 C34.25876953 158.52962891 33.64839844 157.91667969 33.01953125 157.28515625 C32.46370361 156.72707275 31.90787598 156.16898926 31.33520508 155.59399414 C30 154 30 154 29 151 C30.1796875 149.28125 30.1796875 149.28125 31.875 147.5 C34.05018304 145.19329426 34.97333496 144.07999512 36 141 C34.59905206 138.92109546 34.59905206 138.92109546 32.5625 136.75 C27.23193073 130.41348556 23.68982921 123.36003166 20 116 C19.731875 116.53625 19.46375 117.0725 19.1875 117.625 C18.33307276 119.33385448 17.47746122 121.04211701 16.62109375 122.75 C15.43831448 125.12125868 14.26445736 127.49591527 13.09765625 129.875 C7.39241001 141.47105147 1.48290673 152.14246446 -7 162 C-7.49113281 162.60972656 -7.98226562 163.21945312 -8.48828125 163.84765625 C-10 165 -10 165 -11.9284668 164.75854492 C-15.48107701 163.45766573 -17.31214104 160.19496547 -19.5 157.25 C-20.44784143 156.00515104 -21.39575683 154.76035841 -22.34375 153.515625 C-22.79234375 152.91685547 -23.2409375 152.31808594 -23.703125 151.70117188 C-24.87747363 150.16072359 -26.10775225 148.66331229 -27.34375 147.171875 C-29 145 -29 145 -29 143 C-27.3125 141.80859375 -27.3125 141.80859375 -25 140.4375 C-10.04305559 130.66156611 -3.73886436 113.78111278 0 97 C3.70954678 78.49579807 5.22005406 60.42666794 5.29516602 41.58276367 C5.30671214 39.57097353 5.32720521 37.55921463 5.35668945 35.54760742 C5.52578207 23.95956753 5.45855244 13.86510404 1 3 C0.67 2.01 0.34 1.02 0 0 Z " fill="#F8F8F9" transform="translate(2170,287)"/>
<path d="M0 0 C6 2 6 2 8.92848206 3.08717346 C23.49614267 7.41654658 41.65185355 5.21701734 56.69140625 5.31640625 C59.3351224 5.33702045 61.97883368 5.35797566 64.62254333 5.37937927 C70.82329036 5.42884535 77.02406073 5.47395059 83.2248525 5.51740164 C90.99303148 5.57207635 98.7611625 5.63272803 106.52929688 5.69335938 C120.35282736 5.80122807 134.17640358 5.90021363 148 6 C148 23.16 148 40.32 148 58 C108.07 58 68.14 58 27 58 C27 62.29 27 66.58 27 71 C29.30809914 70.99666908 29.30809914 70.99666908 31.66282654 70.99327087 C46.12848708 70.97304322 60.59414245 70.95796972 75.0598135 70.94818783 C82.4976451 70.94302491 89.93546617 70.93598229 97.37329102 70.92456055 C103.85381342 70.91461359 110.33432819 70.90814654 116.81485802 70.90591151 C120.24830542 70.90460442 123.681731 70.9015187 127.11517143 70.89426994 C130.94193821 70.88625584 134.76868335 70.88600887 138.59545898 70.88647461 C139.74200455 70.88287933 140.88855011 70.87928406 142.06983948 70.87557983 C143.6243129 70.87764183 143.6243129 70.87764183 145.21018982 70.87974548 C146.11631232 70.87882369 147.02243483 70.8779019 147.95601559 70.87695217 C150 71 150 71 151 72 C151.08669432 73.4887186 151.10703494 74.981445 151.09765625 76.47265625 C151.09443359 77.37177734 151.09121094 78.27089844 151.08789062 79.19726562 C151.07951172 80.14279297 151.07113281 81.08832031 151.0625 82.0625 C151.05798828 83.01189453 151.05347656 83.96128906 151.04882812 84.93945312 C151.0370011 87.29303065 151.02052025 89.64648477 151 92 C133.55366062 92.09357325 116.10739991 92.16404267 98.66086674 92.20724869 C90.55955157 92.22784607 82.45839262 92.25591236 74.35717773 92.30175781 C67.29353252 92.34171241 60.23000048 92.36745334 53.1662454 92.37635398 C49.42836105 92.38155422 45.69080038 92.39371698 41.9530201 92.42292023 C37.77330485 92.45530936 33.59414708 92.4559539 29.41430664 92.45410156 C28.18431442 92.46848267 26.9543222 92.48286377 25.6870575 92.49768066 C18.70305949 92.46423715 12.98762806 91.81437839 7 88 C2.63641303 83.52732335 1.8871313 80.04040062 1.7890625 73.93359375 C1.76070312 72.72509766 1.73234375 71.51660156 1.703125 70.27148438 C1.65160165 67.74297592 1.60717112 65.21431161 1.5703125 62.68554688 C1.3825262 55.29537357 0.57388437 48.93781175 -2 42 C-2.495 40.515 -2.495 40.515 -3 39 C37.59 39 78.18 39 120 39 C120 35.04 120 31.08 120 27 C80.4 27 40.8 27 0 27 C0 18.09 0 9.18 0 0 Z " fill="#F6F7F8" transform="translate(1488,263)"/>
<path d="M0 0 C15.22848544 10.57613979 21.00714304 27.55594165 24.39453125 45.0234375 C28.9632863 72.3035401 28.11093339 101.25879162 19.74609375 127.6796875 C19.43800781 128.67484375 19.12992188 129.67 18.8125 130.6953125 C14.62342278 142.53643745 6.20526744 152.22102464 -4.96875 157.8203125 C-11.3851065 160.23330127 -17.33019935 161.04316324 -24.12890625 160.9921875 C-24.91974609 160.98654785 -25.71058594 160.9809082 -26.52539062 160.97509766 C-38.62731433 160.72401009 -48.93967831 156.49265403 -57.44140625 147.6796875 C-77.68116104 123.11450124 -77.44629477 84.67853409 -74.56640625 54.7421875 C-72.49428621 36.67384097 -67.61374614 16.09400837 -53.61328125 3.4453125 C-38.74305575 -7.68273704 -16.15385191 -9.46274167 0 0 Z M-38.37890625 23.1796875 C-48.99480213 38.36901111 -48.53155963 59.65014368 -48.56640625 77.4296875 C-48.56999146 78.16414093 -48.57357666 78.89859436 -48.57727051 79.65530396 C-48.62578576 98.14658405 -48.21265138 121.12191984 -35.25390625 135.6796875 C-31.68212925 139.00793425 -29.02098992 139.94418786 -24.25390625 140.1796875 C-19.48682258 139.94418786 -16.82568325 139.00793425 -13.25390625 135.6796875 C3.2186767 116.1029746 1.24362228 82.3830195 -0.48828125 58.43945312 C-1.99252175 43.42673712 -4.48259727 27.85295268 -16.00390625 17.1171875 C-25.1094269 13.08974568 -32.18333749 15.78199346 -38.37890625 23.1796875 Z " fill="#F9F9FA" transform="translate(1813.25390625,292.3203125)"/>
<path d="M0 0 C10.02511551 8.59295615 16.60139364 18.96251705 18.625 32.1875 C19.6000039 47.37506075 16.44605513 60.61734197 6.5 72.375 C-6.22745815 85.81890447 -26.5007647 93.49728026 -44.84741211 94.34863281 C-48.26596219 94.3863608 -51.68404602 94.41863897 -55.1027832 94.42773438 C-57.27530784 94.43733563 -59.44684158 94.46835618 -61.61914062 94.5 C-82.85796218 94.66142345 -104.9146327 89.35110712 -120.75 74.4375 C-125.40574624 69.50524877 -128.64732923 64.38102307 -131.375 58.1875 C-131.71402344 57.445 -132.05304688 56.7025 -132.40234375 55.9375 C-136.84183736 44.15340637 -135.65561905 29.65190638 -130.92578125 18.20703125 C-128.59296851 13.66480392 -125.83601832 9.92510078 -122.375 6.1875 C-121.82972656 5.56359375 -121.28445313 4.9396875 -120.72265625 4.296875 C-116.25369792 -0.5401152 -111.1597913 -3.73184191 -105.375 -6.8125 C-104.56546875 -7.2559375 -103.7559375 -7.699375 -102.921875 -8.15625 C-72.58030454 -23.42010753 -26.88974723 -20.32125935 0 0 Z M-101.25 20.125 C-106.69156011 26.80098809 -108.55132758 33.6532451 -108.375 42.1875 C-106.94953197 51.57067788 -101.7686479 58.89415093 -94.484375 64.80859375 C-79.09208136 74.87059311 -57.47293727 75.75675573 -39.8515625 72.5 C-30.43616043 70.00585376 -21.8345085 65.59693623 -15.375 58.1875 C-14.67375 57.424375 -13.9725 56.66125 -13.25 55.875 C-8.06276933 48.43996937 -7.41567603 41.06124672 -8.375 32.1875 C-10.6127897 23.47610437 -16.56705201 16.75202313 -24 11.9375 C-32.37227218 7.26075131 -41.79221788 4.55240727 -51.375 4.1875 C-52.35984375 4.14753906 -53.3446875 4.10757812 -54.359375 4.06640625 C-71.72764353 3.71322376 -89.02093508 6.89816618 -101.25 20.125 Z " fill="#F8F9F9" transform="translate(1412.375,293.8125)"/>
<path d="M0 0 C11.88 0 23.76 0 36 0 C36 17.16 36 34.32 36 52 C42.27 52 48.54 52 55 52 C54.94866835 46.36121869 54.8853367 40.72506338 54.79248047 35.0871582 C54.76444997 33.17383507 54.74314735 31.2604 54.72900391 29.34692383 C54.70732371 26.57836321 54.66055026 23.81112348 54.609375 21.04296875 C54.60814636 20.20291794 54.60691772 19.36286713 54.60565186 18.49736023 C54.42982957 11.18560441 52.7277519 7.50131773 50 0 C60.23 0 70.46 0 81 0 C81 45.87 81 91.74 81 139 C72.42 139 63.84 139 55 139 C55 117.22 55 95.44 55 73 C48.73 73 42.46 73 36 73 C36 94.78 36 116.56 36 139 C27.42 139 18.84 139 10 139 C9.98541748 135.57915039 9.97083496 132.15830078 9.95581055 128.63378906 C9.90536194 117.30221466 9.83889652 105.97077142 9.76428509 94.63933182 C9.71945779 87.77242831 9.68001366 80.90557515 9.65356445 74.03857422 C9.62800043 67.4054216 9.58700864 60.77247717 9.53681374 54.1394577 C9.52019257 51.61509771 9.50864884 49.09069876 9.50238609 46.56629181 C9.49269345 43.01693868 9.46457164 39.46815622 9.43237305 35.91894531 C9.43380814 34.88675369 9.43524323 33.85456207 9.4367218 32.79109192 C9.30446053 22.40985719 7.08542816 13.05906232 2 4 C1.34 2.68 0.68 1.36 0 0 Z " fill="#F8F9F9" transform="translate(2034,274)"/>
<path d="M0 0 C1.25363846 -0.00281982 2.50727692 -0.00563965 3.79890442 -0.00854492 C5.20101943 -0.00660033 6.6031343 -0.00455214 8.00524902 -0.00241089 C9.47173608 -0.00376488 10.9382228 -0.0055448 12.40470886 -0.00772095 C16.3983995 -0.01229551 20.39206443 -0.01050563 24.38575554 -0.00734186 C28.55599921 -0.00481838 32.72624062 -0.00715577 36.89648438 -0.00872803 C43.90100502 -0.01054976 50.90551513 -0.00814332 57.91003418 -0.00338745 C66.01991129 0.00205518 74.12976326 0.00029252 82.23963976 -0.00521386 C89.18993868 -0.00974489 96.14023 -0.01039558 103.09052992 -0.00777519 C107.24719117 -0.00621236 111.40384059 -0.00601881 115.5605011 -0.00931168 C119.46742244 -0.01219025 123.37431122 -0.01021496 127.28122902 -0.00441742 C128.71921039 -0.00308974 130.15719448 -0.00348406 131.59517479 -0.00568008 C133.55002116 -0.00839127 135.50487349 -0.00439705 137.4597168 0 C139.10455173 0.00056554 139.10455173 0.00056554 140.78261566 0.0011425 C143.2298584 0.12698364 143.2298584 0.12698364 144.2298584 1.12698364 C144.32411435 3.27441913 144.34728488 5.4249939 144.34338379 7.57449341 C144.34352982 8.2476358 144.34367584 8.9207782 144.34382629 9.61431885 C144.34312718 11.84904149 144.33533492 14.08368174 144.32751465 16.31838989 C144.32565046 17.86395726 144.32422656 19.40952522 144.32322693 20.95509338 C144.3194018 25.03055441 144.30957157 29.10598001 144.29852295 33.181427 C144.28830872 37.33710246 144.28372928 41.49278363 144.27868652 45.64846802 C144.26794929 53.80798951 144.25087294 61.96748218 144.2298584 70.12698364 C127.9569738 70.220578 111.68417701 70.29103656 95.41108799 70.33423233 C87.85457402 70.35482528 80.29822766 70.38288296 72.74182129 70.42874146 C66.1528154 70.46870978 59.56393095 70.49444019 52.9748072 70.50333762 C49.48842353 70.50853558 46.00238715 70.52068337 42.51611519 70.54990387 C38.61667681 70.58231984 34.71757287 70.58293665 30.81799316 70.58108521 C29.67215759 70.59546631 28.52632202 70.60984741 27.34576416 70.62466431 C18.96839473 70.58171614 13.17123224 68.75456621 6.2298584 64.12698364 C6.2298584 63.46698364 6.2298584 62.80698364 6.2298584 62.12698364 C5.5698584 62.12698364 4.9098584 62.12698364 4.2298584 62.12698364 C-0.19095623 53.70434111 -0.34017035 45.53815395 -0.3326416 36.25198364 C-0.35434949 23.82059737 -1.32944032 12.52654823 -6.7701416 1.12698364 C-4.99339211 -0.64976585 -2.40403744 0.00082657 0 0 Z M27.2298584 20.12698364 C27.2298584 29.69698364 27.2298584 39.26698364 27.2298584 49.12698364 C56.9298584 49.12698364 86.6298584 49.12698364 117.2298584 49.12698364 C117.2298584 39.55698364 117.2298584 29.98698364 117.2298584 20.12698364 C87.5298584 20.12698364 57.8298584 20.12698364 27.2298584 20.12698364 Z " fill="#F6F6F7" transform="translate(1491.7701416015625,400.8730163574219)"/>
<path d="M0 0 C3.97233233 1.57601545 7.84666106 3.29113588 11.71875 5.09765625 C15.8334607 6.72522161 19.79611629 7.12624384 24.19490051 7.15821838 C25.21988647 7.1680072 26.24487244 7.17779602 27.30091858 7.18788147 C28.41438156 7.19363693 29.52784454 7.1993924 30.67504883 7.20532227 C31.855961 7.21522186 33.03687317 7.22512146 34.25357056 7.23532104 C37.4824977 7.26145385 40.71141988 7.28333848 43.94038987 7.30332303 C47.31833403 7.32523788 50.696234 7.35259959 54.07414246 7.37937927 C60.46653382 7.42923198 66.85894982 7.47419824 73.25138921 7.51740164 C80.53071865 7.56683757 87.81000375 7.62173207 95.08929026 7.67708123 C110.05948692 7.7907873 125.02972562 7.89693043 140 8 C140 15.59 140 23.18 140 31 C112.775 31.495 112.775 31.495 85 32 C88.32821672 40.3205418 90.44449493 44.6770334 96 51 C96.57363281 51.6909375 97.14726563 52.381875 97.73828125 53.09375 C106.04436759 62.3424971 119.59469876 68.41465367 131.97900391 69.11132812 C136.32470158 69.23644224 140.65511238 69.16026225 145 69 C142.76819645 78.02917477 140.50525868 87.04180231 138 96 C111.51182901 90.08280017 90.8260021 78.65385561 72 59 C71.34 58.34 70.68 57.68 70 57 C69.55011719 57.54527344 69.10023438 58.09054687 68.63671875 58.65234375 C63.31135025 64.89551123 57.50286294 70.01263478 51 75 C50.23171875 75.60714844 49.4634375 76.21429688 48.671875 76.83984375 C37.22369689 85.42597734 17.60545158 96 3 96 C1.86784922 93.00265117 0.74562531 90.00167493 -0.375 87 C-0.69210937 86.16082031 -1.00921875 85.32164062 -1.3359375 84.45703125 C-3.23635797 79.34965123 -4.78253441 74.31257712 -6 69 C-4.76765625 69.04640625 -3.5353125 69.0928125 -2.265625 69.140625 C16.02696488 69.6256628 29.20642891 65.02137452 42.7421875 52.35546875 C47.35394427 47.54424153 50.40893659 42.40625435 53.08447266 36.34179688 C53.44352692 35.52932495 53.80258118 34.71685303 54.17251587 33.87976074 C54.58212051 32.94927917 54.58212051 32.94927917 55 32 C53.98855675 32.00333092 53.98855675 32.00333092 52.9566803 32.00672913 C45.96567309 32.02877929 38.97467569 32.04390547 31.98364258 32.05493164 C29.37133381 32.05997377 26.75902789 32.06680725 24.14672852 32.07543945 C20.40119732 32.08751036 16.65570328 32.09322935 12.91015625 32.09765625 C11.73413345 32.10281754 10.55811066 32.10797882 9.34645081 32.11329651 C8.26540573 32.11337204 7.18436066 32.11344757 6.07055664 32.11352539 C5.11347305 32.115746 4.15638947 32.11796661 3.17030334 32.12025452 C1 32 1 32 0 31 C-0.08790975 28.70848583 -0.10694038 26.41427476 -0.09765625 24.12109375 C-0.0962413 23.4344313 -0.09482635 22.74776886 -0.09336853 22.04029846 C-0.08775479 19.83932199 -0.07520007 17.63844591 -0.0625 15.4375 C-0.05748676 13.94856917 -0.05292355 12.45963676 -0.04882812 10.97070312 C-0.03778093 7.31376925 -0.02050713 3.65689442 0 0 Z " fill="#F6F7F7" transform="translate(776,261)"/>
<path d="M0 0 C2.475 0.99 2.475 0.99 5 2 C6.76609776 2.69957534 8.53713708 3.386783 10.3125 4.0625 C11.19550781 4.40410156 12.07851563 4.74570312 12.98828125 5.09765625 C21.46914577 7.63861566 30.36913315 7.17032465 39.13671875 7.20532227 C40.66497555 7.21491415 42.19322978 7.22492497 43.72148132 7.23532104 C47.85102458 7.26223435 51.98057911 7.28331694 56.11016083 7.30332303 C60.43299893 7.32526684 64.75580283 7.35261426 69.07861328 7.37937927 C77.25587495 7.42919308 85.43315571 7.47417364 93.61045456 7.51740164 C102.92366564 7.56687099 112.23684239 7.62175301 121.55002022 7.67708123 C140.69998176 7.79072751 159.84997625 7.89741202 179 8 C179 15.26 179 22.52 179 30 C154.25 30 129.5 30 104 30 C104.03961288 51.01746879 104.03961288 51.01746879 104.09008789 72.03491211 C104.09300675 74.65738891 104.09555538 77.27986616 104.09765625 79.90234375 C104.10026962 80.58808975 104.102883 81.27383575 104.10557556 81.98036194 C104.11285634 83.99072139 104.1133384 86.00110198 104.11352539 88.01147461 C104.115746 89.14620712 104.11796661 90.28093964 104.12025452 91.45005798 C104 94 104 94 103 95 C95.41 95 87.82 95 80 95 C80 73.55 80 52.1 80 30 C53.6 30 27.2 30 0 30 C0 20.1 0 10.2 0 0 Z " fill="#F8F8F9" transform="translate(755,369)"/>
<path d="M0 0 C12.21 0 24.42 0 37 0 C37 66 37 132 37 200 C28.42 200 19.84 200 11 200 C9.11715425 198.11715425 9.8670265 194.86510236 9.86196899 192.36151123 C9.85914771 191.65929105 9.85632643 190.95707087 9.85341966 190.23357129 C9.84503602 187.86240898 9.84373215 185.49129314 9.84228516 183.12011719 C9.8376193 181.42679715 9.83247612 179.73347838 9.82688904 178.04016113 C9.81558381 174.38261787 9.807161 170.72508287 9.80076981 167.06752777 C9.79010136 161.27539528 9.76985585 155.48332147 9.74765015 149.69122314 C9.68569923 133.21637688 9.63182475 116.74153265 9.59863281 100.26660156 C9.58023682 91.1757497 9.55123121 82.08499481 9.5106281 72.9942143 C9.48962677 68.185457 9.47411077 63.37682161 9.47182083 58.56801605 C9.46965951 54.0338865 9.45364017 49.50000995 9.42743111 44.96595764 C9.42029052 43.31049753 9.41811139 41.65500658 9.42153358 39.99953461 C9.44313983 27.54936514 8.84111206 15.65390725 2.0859375 4.8046875 C1 3 1 3 0 0 Z " fill="#F9F9FA" transform="translate(1865,274)"/>
<path d="M0 0 C11.22 0 22.44 0 34 0 C34 14.19 34 28.38 34 43 C58.75 43 83.5 43 109 43 C109 50.59 109 58.18 109 66 C48.94 66 -11.12 66 -73 66 C-73 55.11 -73 44.22 -73 33 C-69.04 34.98 -65.08 36.96 -61 39 C-52.36942665 41.69090526 -44.579754 42.46226053 -35.578125 42.51171875 C-34.35212585 42.52966995 -33.12612671 42.54762115 -31.86297607 42.56611633 C-27.99201783 42.61979297 -24.12117982 42.65397807 -20.25 42.6875 C-17.60675425 42.72071068 -14.96352429 42.75520374 -12.3203125 42.79101562 C-5.88031631 42.87549462 0.55969631 42.94402285 7 43 C6.91817209 38.87424558 6.80541695 34.74986826 6.6875 30.625 C6.66494141 29.46871094 6.64238281 28.31242187 6.61914062 27.12109375 C6.33208457 17.88310789 5.14399859 9.83847404 0 2 C0 1.34 0 0.68 0 0 Z " fill="#F9FAFA" transform="translate(1335,397)"/>
<path d="M0 0 C11.88 0 23.76 0 36 0 C36 66 36 132 36 200 C27.42 200 18.84 200 10 200 C8.10407695 198.10407695 8.87115381 194.76224989 8.86869812 192.24761963 C8.86658241 191.53314879 8.86446669 190.81867795 8.86228687 190.08255649 C8.85625878 187.66993143 8.85728904 185.25735827 8.8581543 182.84472656 C8.85512441 181.12185069 8.85160343 179.39897563 8.84762573 177.67610168 C8.83971915 173.95471354 8.83458503 170.23333506 8.83133507 166.51194 C8.82543173 160.61899374 8.80889464 154.72610811 8.78999329 148.83319092 C8.78365506 146.81592182 8.77732945 144.79865269 8.77101612 142.78138351 C8.76785031 141.77075143 8.7646845 140.76011935 8.76142275 139.71886206 C8.71936506 125.99536571 8.68641026 112.27189626 8.67407227 98.54833984 C8.66567141 89.29925654 8.6430996 80.05032203 8.6047166 70.80131316 C8.58501166 65.90868339 8.57253253 61.01627579 8.57755089 56.12360382 C8.58222399 51.51062194 8.56824762 46.89805942 8.54053879 42.28516197 C8.53366955 40.6006756 8.53345396 38.91614547 8.54073906 37.23166084 C8.59094836 24.30643965 6.973945 13.20812589 0 2 C0 1.34 0 0.68 0 0 Z " fill="#F6F7F8" transform="translate(2282,274)"/>
<path d="M0 0 C10.08869951 8.52594018 15.44671113 20.36727174 16.83203125 33.46484375 C17.98220861 49.39900818 15.4739329 65.15200925 4.9296875 77.71875 C1.63006582 81.06493892 -1.8682972 83.47987121 -6.0078125 85.68359375 C-6.78382812 86.09738281 -7.55984375 86.51117188 -8.359375 86.9375 C-18.3735948 91.38654192 -31.76733214 91.53321956 -42.1328125 88.05859375 C-44.65625 86.9375 -44.65625 86.9375 -47.0078125 85.68359375 C-48.20277344 85.04744141 -48.20277344 85.04744141 -49.421875 84.3984375 C-59.629341 78.27054403 -65.12683554 68.47657551 -68.7578125 57.39453125 C-72.48573348 42.32751727 -70.81048312 24.80375658 -63.2578125 11.24609375 C-56.86756188 1.62876657 -48.93693036 -4.64349491 -37.6953125 -7.62890625 C-24.39216763 -10.03703265 -11.05284004 -8.11756201 0 0 Z M-38.7578125 17.30859375 C-43.93842891 24.23970427 -44.48737594 32.25020963 -44.3828125 40.62109375 C-44.39441406 41.54599609 -44.40601563 42.47089844 -44.41796875 43.42382812 C-44.38575057 51.08638492 -43.44519239 58.98724958 -38.5703125 65.18359375 C-34.72661213 68.93354533 -31.99408463 69.98350591 -26.6328125 70.05859375 C-21.56959745 69.92393378 -18.7087513 69.38453255 -15.0078125 65.68359375 C-7.89616511 54.19256677 -7.71106205 41.37625388 -9.46875 28.23828125 C-10.87653312 22.29246784 -13.20050367 17.58078101 -18.0078125 13.68359375 C-25.76329433 10.04326554 -32.5171544 11.35160193 -38.7578125 17.30859375 Z " fill="#F8F9F9" transform="translate(2008.0078125,284.31640625)"/>
<path d="M0 0 C3.04549687 3.76498318 5.32662684 7.915341 7.6875 12.125 C8.31108398 13.21748047 8.31108398 13.21748047 8.94726562 14.33203125 C9.53604492 15.37810547 9.53604492 15.37810547 10.13671875 16.4453125 C10.49467529 17.07969238 10.85263184 17.71407227 11.22143555 18.36767578 C12 20 12 20 12 22 C11.31035156 22.35191406 10.62070312 22.70382812 9.91015625 23.06640625 C3.3746026 26.50003732 -2.35669125 30.25292353 -8 35 C-8.79019531 35.62132812 -9.58039062 36.24265625 -10.39453125 36.8828125 C-27.07739733 50.70200551 -37.529148 72.68621575 -40 94 C-41.57219465 121.09074448 -35.14056962 143.31219616 -17.4375 164.3046875 C-9.56840683 173.0060886 -1.05846485 179.17066241 9 185 C10.485 185.99 10.485 185.99 12 187 C11.05207832 191.47256213 8.90389908 194.87331734 6.5625 198.75 C5.95051758 199.79607422 5.95051758 199.79607422 5.32617188 200.86328125 C4.27692374 202.6125987 3.14456305 204.31150699 2 206 C1.34 206 0.68 206 0 206 C-0.55945313 205.10539063 -1.11890625 204.21078125 -1.6953125 203.2890625 C-4.03829221 199.60291839 -7.19647022 197.60564308 -10.875 195.375 C-35.20367409 179.82348445 -52.92803446 157.45342278 -59.8125 129.125 C-66.16399787 100.25455513 -60.80812759 69.90059581 -45.09375 44.9765625 C-34.30665875 29.54748526 -20.75261749 18.32071182 -5.20703125 7.94921875 C-2.54732031 5.60019971 -1.39921249 3.23140605 0 0 Z " fill="#F7F7F8" transform="translate(741,267)"/>
<path d="M0 0 C3 3.75 3 3.75 3 6 C3.52722656 6.24878906 4.05445313 6.49757813 4.59765625 6.75390625 C30.05888322 19.96062398 49.96639512 41.3860958 58.75 68.9375 C66.80543702 95.63821171 63.92394798 123.05544253 51.1875 147.75 C42.49300979 162.86887854 30.76701687 175.76426809 16.32421875 185.5078125 C7.20604963 191.56730791 7.20604963 191.56730791 2 201 C-1.61475921 197.69199788 -4.13701562 194.03571491 -6.75 189.9375 C-7.16121094 189.31294922 -7.57242188 188.68839844 -7.99609375 188.04492188 C-11 183.36940667 -11 183.36940667 -11 180 C-8.92134689 178.48880402 -6.89151615 177.17819985 -4.6875 175.875 C17.19291474 162.33130025 33.47706025 142.89624861 39.81762695 117.6105957 C44.71449543 95.10388524 39.31878268 71.23409933 27 52 C24.18696068 48.15370969 21.172022 44.55431781 18 41 C17.24976563 40.154375 16.49953125 39.30875 15.7265625 38.4375 C8.26038386 30.50003434 -1.06686628 23.59220253 -11 19 C-9.41467191 14.44435939 -7.00996919 10.68524231 -4.375 6.6875 C-3.95476563 6.04232422 -3.53453125 5.39714844 -3.1015625 4.73242188 C-2.07161759 3.15239276 -1.03634372 1.57583953 0 0 Z " fill="#F6F7F8" transform="translate(949,269)"/>
<path d="M0 0 C4.82380802 -0.0246519 9.64757967 -0.04283693 14.47143555 -0.05493164 C16.11369464 -0.05997174 17.75594923 -0.06680378 19.39819336 -0.07543945 C21.75375479 -0.08751926 24.10925709 -0.09323139 26.46484375 -0.09765625 C27.20339096 -0.10281754 27.94193817 -0.10797882 28.7028656 -0.11329651 C30.46898088 -0.1134925 32.23497146 -0.06194719 34 0 C46.02312586 12.02312586 35 33.99673234 35 51 C71.96 51 108.92 51 147 51 C147 58.26 147 65.52 147 73 C131.10097722 73.06953615 115.20200852 73.12302946 99.3028717 73.15543652 C91.92012343 73.17088564 84.53747155 73.19193759 77.15478516 73.22631836 C70.71777657 73.25628079 64.28083783 73.27558921 57.84376144 73.28226548 C54.4373993 73.28616621 51.0312369 73.2952922 47.62493896 73.31719017 C43.81624549 73.33899319 40.00796468 73.34196562 36.19921875 73.34057617 C35.07784012 73.351362 33.95646149 73.36214783 32.80110168 73.3732605 C25.63983661 73.3450246 19.40222334 72.89451591 13.72265625 68.0625 C13.17480469 67.381875 12.62695312 66.70125 12.0625 66 C11.49660156 65.319375 10.93070313 64.63875 10.34765625 63.9375 C7.65922836 60.07239787 7.8222302 56.21156455 7.75390625 51.69140625 C7.72091753 50.20637543 7.68770688 48.72134953 7.65429688 47.23632812 C7.60731352 44.91320824 7.56297258 42.59010043 7.52319336 40.2668457 C7.28626079 27.05962846 6.37053872 15.25226798 1 3 C0.67 2.01 0.34 1.02 0 0 Z " fill="#FAFAFA" transform="translate(1972,398)"/>
<path d="M0 0 C7.25 3.875 7.25 3.875 9.45019531 5.08544922 C20.12014375 10.59242989 32.04356554 10.30249454 43.77441406 10.31884766 C45.32296764 10.32816722 46.87151629 10.33833883 48.4200592 10.34928894 C52.58656071 10.37637471 56.75302882 10.39167408 60.91959476 10.40471697 C65.28780469 10.42044223 69.65594734 10.44720203 74.02410889 10.4727478 C82.27914573 10.51937037 90.53419546 10.55619397 98.78929591 10.58942068 C108.19451564 10.62775943 117.59966752 10.67713846 127.00482988 10.72740483 C146.33650426 10.83047869 165.66821964 10.91942667 185 11 C185 18.59 185 26.18 185 34 C123.95 34 62.9 34 0 34 C0 22.78 0 11.56 0 0 Z " fill="#FAFAFA" transform="translate(1470,356)"/>
<path d="M0 0 C0.02312611 8.71844003 0.04091646 17.43686956 0.05181217 26.15533352 C0.05704041 30.20325742 0.06413699 34.25116041 0.07543945 38.29907227 C0.08627043 42.20235971 0.09227728 46.10562699 0.09487724 50.0089283 C0.09673111 51.50133647 0.100351 52.99374348 0.10573006 54.48614311 C0.11294331 56.56948139 0.11399083 58.65273531 0.11352539 60.73608398 C0.115746 61.92411118 0.11796661 63.11213837 0.12025452 64.33616638 C0 67 0 67 -1 68 C-2.80960871 68.09641497 -4.62302128 68.12187398 -6.43519592 68.12025452 C-7.61455215 68.12162918 -8.79390839 68.12300385 -10.00900269 68.12442017 C-11.3145108 68.12082489 -12.62001892 68.11722961 -13.96508789 68.11352539 C-15.34452818 68.11324352 -16.72396861 68.11340125 -18.10340881 68.1139679 C-21.85944118 68.11425588 -25.61544189 68.10835905 -29.37146688 68.10139394 C-33.29260045 68.09516051 -37.21373467 68.09455661 -41.13487244 68.09336853 C-48.56511611 68.09025518 -55.99534514 68.08204175 -63.42558235 68.07201904 C-71.88251638 68.06085801 -80.3394511 68.05534748 -88.79639065 68.05032361 C-106.19760225 68.03985914 -123.59879958 68.02225963 -141 68 C-137.74499621 65.82999747 -135.1452868 65.11891003 -131.375 64.125 C-126.47014992 62.7658851 -121.96767317 61.23714885 -117.3828125 59.0546875 C-114.43440273 57.74965367 -111.42543111 56.73160729 -108.375 55.6875 C-102.07747737 53.47394771 -96.09079343 50.81348506 -90.078125 47.9296875 C-87.2349787 46.56937705 -84.37209317 45.27073074 -81.484375 44.0078125 C-62.5903731 35.73891268 -44.42721268 26.19241654 -26.6875 15.6875 C-25.59751709 15.04224365 -24.50753418 14.3969873 -23.38452148 13.73217773 C-16.89585051 9.84553991 -10.59991729 5.77319925 -4.37426758 1.47973633 C-2 0 -2 0 0 0 Z " fill="#C5A688" transform="translate(426,539)"/>
<path d="M0 0 C3.04897676 1.80950143 4.75552415 4.19575661 6.796875 7.06640625 C7.209375 6.66808594 7.621875 6.26976562 8.046875 5.859375 C14.22299134 0.1933397 20.07940882 -2.55514844 28.5625 -2.21875 C33.67063506 -1.56683766 37.51222548 0.09578217 41.609375 3.19140625 C46.67056699 9.84325858 47.23752563 17.19620405 47.125 25.31640625 C47.12312683 26.25572998 47.12125366 27.19505371 47.11932373 28.1628418 C47.11264885 30.1292684 47.0988266 32.09568276 47.078125 34.06201172 C47.04667394 37.08573611 47.03711875 40.10893994 47.03125 43.1328125 C47.02209071 45.04818351 47.01171839 46.96354919 47 48.87890625 C46.99575012 49.78608398 46.99150024 50.69326172 46.98712158 51.62792969 C46.91410642 57.94917483 46.91410642 57.94917483 45.796875 59.06640625 C43.61048047 59.13899571 41.42187111 59.15014408 39.234375 59.12890625 C37.43806641 59.11537109 37.43806641 59.11537109 35.60546875 59.1015625 C34.67863281 59.08996094 33.75179688 59.07835937 32.796875 59.06640625 C32.767146 57.40254883 32.767146 57.40254883 32.73681641 55.70507812 C32.66031031 51.56000407 32.57166496 47.41526063 32.47949219 43.27050781 C32.44138733 41.48216312 32.40650338 39.6937466 32.375 37.90527344 C32.32894487 35.3233079 32.27102072 32.741829 32.2109375 30.16015625 C32.19938629 29.37024292 32.18783508 28.58032959 32.17593384 27.76647949 C32.04059124 22.58847607 31.41039452 18.00666526 29.796875 13.06640625 C25.76526535 10.37866648 22.53263622 10.39224692 17.796875 11.06640625 C13.67905801 13.43196069 12.17277376 15.60196205 10.796875 20.06640625 C10.48633207 22.98712773 10.44875587 25.89658715 10.41796875 28.83203125 C10.40097427 29.66603455 10.3839798 30.50003784 10.36647034 31.35931396 C10.31351963 34.01160208 10.27309984 36.66387528 10.234375 39.31640625 C10.19047316 41.98314345 10.14385431 44.6497589 10.09156799 47.31634521 C10.05955705 48.97335632 10.03268381 50.63047589 10.01133728 52.28765869 C9.90866614 57.95461511 9.90866614 57.95461511 8.796875 59.06640625 C6.63206703 59.16533565 4.46393715 59.19611725 2.296875 59.19140625 C1.1109375 59.19398438 -0.075 59.1965625 -1.296875 59.19921875 C-4.203125 59.06640625 -4.203125 59.06640625 -5.203125 58.06640625 C-5.31408496 54.93947423 -5.36479259 51.83091372 -5.37890625 48.703125 C-5.40210681 46.76496313 -5.42622424 44.82681205 -5.45117188 42.88867188 C-5.48629538 39.82064627 -5.51562889 36.75301664 -5.52905273 33.68481445 C-5.54451451 30.73209157 -5.58471798 27.78053933 -5.62890625 24.828125 C-5.62699783 23.91133469 -5.62508942 22.99454437 -5.62312317 22.04997253 C-5.68158676 16.90894301 -5.68158676 16.90894301 -8.10253906 12.48950195 C-11.68136269 10.0649363 -15.05026537 10.32482417 -19.203125 11.06640625 C-22.79213179 13.20453796 -24.76201779 15.17718621 -26.203125 19.06640625 C-26.52633313 22.02599213 -26.55184448 24.97793063 -26.58203125 27.953125 C-26.59902573 28.81073929 -26.6160202 29.66835358 -26.63352966 30.55195618 C-26.686584 33.28586517 -26.72693991 36.0197591 -26.765625 38.75390625 C-26.80951276 41.49868992 -26.85614174 44.24335456 -26.90843201 46.98799133 C-26.94046256 48.69508416 -26.96732956 50.40228283 -26.98866272 52.10954285 C-27.09135482 57.95463607 -27.09135482 57.95463607 -28.203125 59.06640625 C-30.36793297 59.16533565 -32.53606285 59.19611725 -34.703125 59.19140625 C-35.8890625 59.19398438 -37.075 59.1965625 -38.296875 59.19921875 C-41.203125 59.06640625 -41.203125 59.06640625 -42.203125 58.06640625 C-42.30212061 56.26131252 -42.33111651 54.45233697 -42.33251953 52.64453125 C-42.33567169 51.48663086 -42.33882385 50.32873047 -42.34207153 49.13574219 C-42.3400473 47.87536133 -42.33802307 46.61498047 -42.3359375 45.31640625 C-42.33737259 43.39103027 -42.33737259 43.39103027 -42.33883667 41.42675781 C-42.34031331 38.70636801 -42.33816019 35.986011 -42.33349609 33.265625 C-42.32779881 29.77155956 -42.33107799 26.27757092 -42.33706856 22.7835083 C-42.34154254 19.46113472 -42.33841385 16.13878202 -42.3359375 12.81640625 C-42.33796173 11.55602539 -42.33998596 10.29564453 -42.34207153 8.99707031 C-42.33891937 7.83916992 -42.33576721 6.68126953 -42.33251953 5.48828125 C-42.33132614 3.95059082 -42.33132614 3.95059082 -42.33010864 2.38183594 C-42.203125 0.06640625 -42.203125 0.06640625 -41.203125 -0.93359375 C-39.01673047 -1.00618321 -36.82812111 -1.01733158 -34.640625 -0.99609375 C-32.84431641 -0.98255859 -32.84431641 -0.98255859 -31.01171875 -0.96875 C-30.08488281 -0.95714844 -29.15804688 -0.94554687 -28.203125 -0.93359375 C-27.543125 1.04640625 -26.883125 3.02640625 -26.203125 5.06640625 C-25.31625 4.28265625 -24.429375 3.49890625 -23.515625 2.69140625 C-16.46067665 -3.10021414 -8.35330996 -3.45827032 0 0 Z " fill="#D6BE99" transform="translate(1637.203125,546.93359375)"/>
<path d="M0 0 C0.495 0.99 0.495 0.99 1 2 C0.06015262 4.48128836 -0.94758889 6.86929593 -2.02734375 9.2890625 C-2.66286574 10.80328146 -3.29491162 12.31896312 -3.92382812 13.8359375 C-4.91712499 16.22297155 -5.92412536 18.59558754 -6.99438477 20.94921875 C-11.6646758 30.85892411 -11.6646758 30.85892411 -10.78759766 41.37060547 C-9.19525112 44.86906266 -7.24825325 48.09526316 -5.12356567 51.29376221 C-3.60885746 53.59398591 -2.32687529 56.00088894 -1.03125 58.4296875 C-0.19129292 59.91361168 0.65228351 61.39549481 1.5 62.875 C2.36846819 64.39101027 3.23326104 65.90913402 4.09375 67.4296875 C4.46177734 68.07147949 4.82980469 68.71327148 5.20898438 69.37451172 C6 71 6 71 6 73 C0.56402213 71.48803613 -4.72941697 69.77262219 -9.98046875 67.703125 C-10.99947266 67.30222656 -12.01847656 66.90132813 -13.06835938 66.48828125 C-15.16328969 65.65660572 -17.25442172 64.81530372 -19.34179688 63.96484375 C-20.35693359 63.56910156 -21.37207031 63.17335937 -22.41796875 62.765625 C-23.32313232 62.40243164 -24.2282959 62.03923828 -25.16088867 61.66503906 C-31.38188422 60.20782074 -36.08379766 62.24477616 -41.44921875 65.30859375 C-42.31907158 65.79876732 -42.31907158 65.79876732 -43.20649719 66.29884338 C-45.03960818 67.33471457 -46.86357252 68.38555931 -48.6875 69.4375 C-50.52403828 70.48223157 -52.36231019 71.5238661 -54.20063782 72.56544495 C-55.86266126 73.50943133 -57.52068001 74.4604583 -59.1784668 75.41186523 C-61.42750908 76.67776642 -63.67790707 77.87618113 -66 79 C-64.28487609 69.76014172 -60.81323527 61.31275366 -57.36914062 52.59765625 C-56.92376953 51.43621094 -56.47839844 50.27476562 -56.01953125 49.078125 C-55.60807861 48.03043945 -55.19662598 46.98275391 -54.77270508 45.90332031 C-53.31044624 40.40910797 -55.41337152 36.85031541 -58.0546875 32.03515625 C-58.66957031 30.90529297 -59.28445313 29.77542969 -59.91796875 28.61132812 C-60.57006088 27.42824669 -61.22240672 26.24530507 -61.875 25.0625 C-63.14516726 22.74194077 -64.41217381 20.41966723 -65.6796875 18.09765625 C-66.52635986 16.55863647 -66.52635986 16.55863647 -67.39013672 14.98852539 C-68.98882373 12.02074745 -70.50822371 9.02272087 -72 6 C-67.82186141 6.69323597 -64.07973639 8.00094696 -60.125 9.50390625 C-58.79696678 10.00219779 -57.46883887 10.50023704 -56.140625 10.99804688 C-54.06580137 11.78053072 -51.99201707 12.56554232 -49.91992188 13.35522461 C-47.90758683 14.1203411 -45.89164051 14.87522453 -43.875 15.62890625 C-42.07675781 16.3106189 -42.07675781 16.3106189 -40.2421875 17.00610352 C-36.02932865 18.29756047 -33.53180125 18.67285417 -29.46386719 16.88598633 C-28.58375977 16.37318115 -27.70365234 15.86037598 -26.796875 15.33203125 C-25.81589844 14.76806641 -24.83492187 14.20410156 -23.82421875 13.62304688 C-22.80972656 13.02556641 -21.79523437 12.42808594 -20.75 11.8125 C-18.74491184 10.65213608 -16.73970507 9.49197707 -14.734375 8.33203125 C-13.77208984 7.77080566 -12.80980469 7.20958008 -11.81835938 6.63134766 C-7.90797219 4.36790282 -3.96028861 2.17467826 0 0 Z " fill="#F7F8F8" transform="translate(667,149)"/>
<path d="M0 0 C4.11961013 1.37320338 5.48122574 4.19668044 7.75 7.6875 C8.41261841 8.69973633 8.41261841 8.69973633 9.08862305 9.73242188 C25.98481186 36.01061134 28.48953055 62.06135419 28.20599365 92.3717041 C28.17486221 96.05959863 28.16150995 99.7475578 28.14648438 103.43554688 C28.11466637 110.62387064 28.06371908 117.8118805 28 125 C25.56283785 126.21858107 23.96725943 126.12925575 21.24609375 126.1328125 C20.30958984 126.13410156 19.37308594 126.13539063 18.40820312 126.13671875 C16.93770508 126.13091797 16.93770508 126.13091797 15.4375 126.125 C13.96120117 126.13080078 13.96120117 126.13080078 12.45507812 126.13671875 C11.51986328 126.13542969 10.58464844 126.13414062 9.62109375 126.1328125 C8.7592749 126.13168457 7.89745605 126.13055664 7.00952148 126.12939453 C5 126 5 126 4 125 C3.8973503 123.09592866 3.86427796 121.18807646 3.8581543 119.28125 C3.85111984 118.05486816 3.84408539 116.82848633 3.83683777 115.56494141 C3.83502188 114.90375305 3.83320599 114.2425647 3.83133507 113.56134033 C3.82415448 111.48138427 3.80846599 109.40166212 3.78999329 107.32177734 C3.73767299 101.40498528 3.68979072 95.48830621 3.67407227 89.57128906 C3.59160915 62.66641885 1.11587117 40.54044144 -15 18 C-15.66 17.01 -16.32 16.02 -17 15 C-15.10600285 13.24797712 -13.20988262 11.49835022 -11.3125 9.75 C-10.51682617 9.01330078 -10.51682617 9.01330078 -9.70507812 8.26171875 C-2.88506249 1.98563074 -2.88506249 1.98563074 0 0 Z " fill="#C3A587" transform="translate(499,481)"/>
<path d="M0 0 C3.61400234 2.71050175 6.45740163 5.78980327 8.5 9.875 C9.2391731 16.73875023 9.22817212 22.41683541 5.078125 28.1171875 C2.47026711 31.0219797 -0.39687016 33.51411736 -3.5 35.875 C-1.88462556 39.77417968 0.77924873 42.58793772 3.625 45.625 C4.09292969 46.13160156 4.56085938 46.63820313 5.04296875 47.16015625 C6.19126541 48.40219141 7.34508672 49.63911494 8.5 50.875 C10.35182095 48.09726858 10.8341681 46.99116555 11.3515625 43.86328125 C11.48046875 43.10595703 11.609375 42.34863281 11.7421875 41.56835938 C11.93167969 40.38983398 11.93167969 40.38983398 12.125 39.1875 C12.2590625 38.39021484 12.393125 37.59292969 12.53125 36.77148438 C12.8606146 34.8070598 13.18116313 32.84116073 13.5 30.875 C17.46 30.875 21.42 30.875 25.5 30.875 C25.19341124 39.97046662 23.65838137 47.31793107 20.55859375 55.7578125 C19.33921882 58.7997721 19.33921882 58.7997721 19.5 61.875 C21.2180624 63.97517814 22.94128273 65.92119433 24.8125 67.875 C25.31201172 68.40867187 25.81152344 68.94234375 26.32617188 69.4921875 C28.29232227 71.58594236 30.26563653 73.65395824 32.35546875 75.625 C33.5 76.875 33.5 76.875 33.5 78.875 C19.23385104 79.78993117 19.23385104 79.78993117 15.1015625 77.609375 C13.04397471 75.5417502 11.5 73.89272272 11.5 70.875 C10.88125 71.266875 10.2625 71.65875 9.625 72.0625 C6.94427665 73.61731954 4.25431513 75.08173325 1.5 76.5 C0.675 76.92539062 -0.15 77.35078125 -1 77.7890625 C-8.84919699 81.19855744 -17.1856408 80.51188135 -25.140625 77.84375 C-31.12824688 75.38525625 -35.21388022 72.20462546 -37.83984375 66.1796875 C-39.55390747 60.19567807 -39.43701325 54.17751846 -36.8125 48.5 C-33.74035122 43.19946161 -29.30091206 39.57856073 -24.5 35.875 C-25.37497476 33.54173398 -26.25047606 31.29595261 -27.5234375 29.1484375 C-30.83293604 23.44483364 -31.30990134 18.39420581 -30.5 11.875 C-28.76479855 6.66939564 -25.91603368 4.05454425 -21.5 0.875 C-14.89703121 -2.35336805 -6.91539444 -2.22280535 0 0 Z M-16 10.3125 C-18.2503346 14.15682161 -18.38107662 17.53515151 -17.5 21.875 C-16.07774939 24.57186275 -14.49568767 26.53006698 -12.5 28.875 C-8.07258356 27.52217831 -6.13690779 25.64201112 -3.5 21.875 C-1.97153339 18.81806678 -2.26757555 16.24515453 -2.5 12.875 C-3.31452316 10.31648975 -3.31452316 10.31648975 -5.5 8.875 C-9.85503854 8.32197923 -12.20416736 8.12989623 -16 10.3125 Z M-21.5 46.875 C-24.84418682 50.79577075 -25.01790328 54.52582586 -24.84765625 59.5 C-24.33602191 62.99520986 -23.183917 64.61485937 -20.5 66.875 C-15.52841175 69.41860329 -10.80618317 69.18777542 -5.5 67.875 C-2.96304653 66.72733057 -0.83644814 65.41606154 1.5 63.875 C1.5 60.17114562 0.76460597 59.74303727 -1.74609375 57.15234375 C-2.41833984 56.44916016 -3.09058594 55.74597656 -3.78320312 55.02148438 C-4.49412109 54.29251953 -5.20503906 53.56355469 -5.9375 52.8125 C-7.33395054 51.36513057 -8.72857425 49.91599565 -10.12109375 48.46484375 C-10.7442749 47.82409912 -11.36745605 47.18335449 -12.00952148 46.52319336 C-13.5 44.875 -13.5 44.875 -14.5 42.875 C-17.7176537 42.875 -19.17252042 44.7745916 -21.5 46.875 Z " fill="#D9C09B" transform="translate(1825.5,527.125)"/>
<path d="M0 0 C9.79780827 6.66116053 14.37333759 16.01456635 16.6875 27.375 C17.88533281 41.26986055 16.4727762 54.80976423 7.40234375 65.96484375 C0.92555192 72.94325499 -7.18106367 76.41551974 -16.59765625 77.22265625 C-27.39749745 77.5720182 -36.88789018 74.59964254 -44.91015625 67.25 C-53.14994985 58.57285005 -55.91547103 47.30262317 -56.03515625 35.546875 C-55.45970929 22.80283011 -52.38934162 12.02502854 -43 3 C-30.87198056 -5.72150298 -13.22216735 -7.40878468 0 0 Z M-34.3125 14.125 C-41.18956457 23.21321884 -40.9359132 34.05457441 -40 45 C-39.39976699 48.288233 -38.52569315 51.03447523 -37 54 C-36.1646875 55.6396875 -36.1646875 55.6396875 -35.3125 57.3125 C-31.52970541 61.70872074 -27.84158056 63.59133183 -22.09375 64.41796875 C-16.02590813 64.70144116 -11.5608117 64.1356825 -6.6171875 60.484375 C-0.93370318 55.26765026 0.98901526 48.76005702 1.3359375 41.29296875 C1.82910148 26.73652166 1.82910148 26.73652166 -4.61328125 14.1484375 C-9.0546471 9.99265837 -13.30019993 8.24998149 -19.375 7.6875 C-25.44209883 8.21052576 -30.06728066 9.5960655 -34.3125 14.125 Z " fill="#DAC09B" transform="translate(1386,530)"/>
<path d="M0 0 C4.62 0 9.24 0 14 0 C14 26.07 14 52.14 14 79 C9.71 79 5.42 79 1 79 C0.34 77.02 -0.32 75.04 -1 73 C-2.010625 73.78375 -3.02125 74.5675 -4.0625 75.375 C-9.82625262 79.46055155 -15.97421285 80.83268588 -23 80 C-29.86524756 78.50552434 -35.25789098 75.91512233 -39.40625 69.9921875 C-45.08418339 60.51796144 -46.24070981 50.31350173 -44.375 39.5 C-42.47424019 32.00329698 -38.43731658 25.0187595 -31.77734375 20.89453125 C-25.52052688 17.74549595 -18.63205934 16.86069636 -11.82421875 18.53515625 C-7.24910278 20.11189113 -5.01400925 21.7887926 -1 25 C-0.67 16.75 -0.34 8.5 0 0 Z M-26 33 C-31.06148032 40.1134318 -30.78540869 47.50244579 -30 56 C-28.93754821 60.66255821 -26.67027414 63.92170556 -23 67 C-18.78736478 69.10631761 -13.57605536 68.51443237 -9 68 C-5.02296749 66.35380086 -2.87919272 63.27429595 -1.125 59.4375 C1.16380721 52.23048207 1.19144676 43.6290662 -1.98046875 36.69140625 C-3.86981759 33.55696928 -5.64544676 31.40969552 -9 30 C-15.41846423 29.09550098 -20.64660659 29.06314024 -26 33 Z " fill="#DAC19B" transform="translate(2297,527)"/>
<path d="M0 0 C7.24486551 -0.02526739 14.48971974 -0.0428318 21.73461914 -0.05493164 C24.20142033 -0.05997356 26.66821852 -0.06680691 29.13500977 -0.07543945 C32.67204529 -0.08751125 36.20904145 -0.09322956 39.74609375 -0.09765625 C40.85649521 -0.10281754 41.96689667 -0.10797882 43.11094666 -0.11329651 C44.64242088 -0.11340981 44.64242088 -0.11340981 46.20483398 -0.11352539 C47.10862289 -0.115746 48.0124118 -0.11796661 48.94358826 -0.12025452 C51 0 51 0 52 1 C52.0979057 2.49738124 52.12974864 3.99942892 52.125 5.5 C52.12886719 6.72203125 52.12886719 6.72203125 52.1328125 7.96875 C52 10 52 10 51 11 C48.26105915 11.08858646 45.5474673 11.11523479 42.80859375 11.09765625 C41.98875504 11.0962413 41.16891632 11.09482635 40.32423401 11.09336853 C37.69528618 11.08775289 35.06642227 11.07519779 32.4375 11.0625 C30.65950643 11.05748701 28.88151154 11.05292376 27.10351562 11.04882812 C22.73561842 11.03862752 18.3679036 11.01905532 14 11 C14 18.26 14 25.52 14 33 C25.55 33 37.1 33 49 33 C49 36.63 49 40.26 49 44 C37.45 44 25.9 44 14 44 C14 51.59 14 59.18 14 67 C17.98900391 66.98259766 17.98900391 66.98259766 22.05859375 66.96484375 C24.62345256 66.95705348 27.18831007 66.95097655 29.75317383 66.94506836 C31.54094021 66.94002782 33.32870245 66.93319546 35.11645508 66.92456055 C37.68051168 66.9124827 40.24451397 66.90676906 42.80859375 66.90234375 C43.6127623 66.89718246 44.41693085 66.89202118 45.24546814 66.88670349 C47.16401715 66.88650785 49.08245368 66.93798017 51 67 C52 68 52 68 52.1328125 70.25 C52.13023438 71.1575 52.12765625 72.065 52.125 73 C52.12886719 74.36125 52.12886719 74.36125 52.1328125 75.75 C52 78 52 78 51 79 C49.44000952 79.09846967 47.87559456 79.12798618 46.3125 79.12939453 C45.31476563 79.13254669 44.31703125 79.13569885 43.2890625 79.13894653 C42.20367188 79.1369223 41.11828125 79.13489807 40 79.1328125 C38.89398437 79.13376923 37.78796875 79.13472595 36.6484375 79.13571167 C34.30468692 79.13639367 31.96093447 79.13453804 29.6171875 79.13037109 C26.01558212 79.12502314 22.41410147 79.13031547 18.8125 79.13671875 C16.54166639 79.13605797 14.27083286 79.13477682 12 79.1328125 C10.91460938 79.13483673 9.82921875 79.13686096 8.7109375 79.13894653 C7.71320313 79.13579437 6.71546875 79.13264221 5.6875 79.12939453 C4.80449219 79.12859894 3.92148438 79.12780334 3.01171875 79.12698364 C1 79 1 79 0 78 C-0.09498646 75.56603981 -0.12558417 73.16057048 -0.11352539 70.72631836 C-0.11367142 69.96539383 -0.11381744 69.2044693 -0.1139679 68.42048645 C-0.11326862 65.89357702 -0.10547555 63.36674038 -0.09765625 60.83984375 C-0.09579212 59.0924941 -0.0943682 57.34514393 -0.09336853 55.59779358 C-0.08954293 50.98968066 -0.07971229 46.38159905 -0.06866455 41.77349854 C-0.05845134 37.07491479 -0.0538711 32.37632601 -0.04882812 27.67773438 C-0.03809005 18.45180913 -0.02101313 9.22590716 0 0 Z " fill="#D7BE9A" transform="translate(1724,527)"/>
<path d="M0 0 C6.07694926 5.01398454 9.36801649 10.35007728 11 18 C11 21.96 11 25.92 11 30 C-2.86 30 -16.72 30 -31 30 C-28.48864961 38.51710515 -28.48864961 38.51710515 -23 44 C-15.16077804 46.61307399 -5.99135182 45.91978354 1.4375 42.5 C2.97355956 41.69507796 4.50126189 40.8724463 6 40 C10.0480583 46.37875854 10.0480583 46.37875854 9.83984375 49.0703125 C8.20913198 52.81715723 4.54647897 54.29600416 1 56 C-10.03212839 59.91851555 -21.38517994 58.50708629 -32 54 C-38.36636673 50.28628607 -42.25927202 44.10022211 -44.61328125 37.203125 C-46.4922381 26.49876474 -45.57944575 16.26987013 -39.75 7.015625 C-30.48235638 -5.30612845 -12.94373285 -7.18666958 0 0 Z " fill="#DBC19B" transform="translate(1285,549)"/>
<path d="M0 0 C3.61328125 0.03255208 7.2265625 0.06510417 10.83984375 0.09765625 C11.16984375 8.34765625 11.49984375 16.59765625 11.83984375 25.09765625 C14.80984375 23.11765625 17.77984375 21.13765625 20.83984375 19.09765625 C28.24010968 17.24758977 35.03703971 17.39109563 41.83984375 21.09765625 C47.786246 25.85477805 49.89087336 31.7186305 50.83984375 39.09765625 C50.97617422 42.12574991 50.98014735 45.14890467 50.97265625 48.1796875 C50.97361298 49.03447189 50.9745697 49.88925629 50.97555542 50.76994324 C50.97623297 52.56594924 50.97440847 54.36195775 50.97021484 56.15795898 C50.96482744 58.91851206 50.97019106 61.67890486 50.9765625 64.43945312 C50.97590229 66.18619828 50.97462231 67.93294333 50.97265625 69.6796875 C50.97468048 70.50878128 50.97670471 71.33787506 50.97879028 72.1920929 C50.95481649 77.98268351 50.95481649 77.98268351 49.83984375 79.09765625 C47.67503578 79.19658565 45.5069059 79.22736725 43.33984375 79.22265625 C42.15390625 79.22523438 40.96796875 79.2278125 39.74609375 79.23046875 C36.83984375 79.09765625 36.83984375 79.09765625 35.83984375 78.09765625 C35.71652083 75.12797925 35.65366942 72.1779973 35.62890625 69.20703125 C35.60082847 67.36457459 35.57216395 65.52212679 35.54296875 63.6796875 C35.50175059 60.76546562 35.46487773 57.85140759 35.43847656 54.93701172 C35.41082948 52.13083328 35.36494586 49.32541575 35.31640625 46.51953125 C35.31315338 45.65164978 35.30990051 44.78376831 35.30654907 43.8895874 C35.21073582 39.16299445 34.9321124 35.92347501 31.83984375 32.09765625 C28.38112159 30.36829517 24.62841804 30.74686233 20.83984375 31.09765625 C17.37498481 32.31677329 15.49011611 33.28127009 13.20556641 36.14941406 C11.33816728 40.18064607 11.38062052 43.68902377 11.36328125 48.08203125 C11.33991196 49.36633026 11.33991196 49.36633026 11.31607056 50.67657471 C11.26868401 53.40025996 11.24081835 56.12368983 11.21484375 58.84765625 C11.17838092 61.58572681 11.1378352 64.32365162 11.0921936 67.06158447 C11.06491295 68.76311706 11.04358524 70.46475709 11.02865601 72.16644287 C10.95053488 77.98696512 10.95053488 77.98696512 9.83984375 79.09765625 C7.67503578 79.19658565 5.5069059 79.22736725 3.33984375 79.22265625 C2.15390625 79.22523438 0.96796875 79.2278125 -0.25390625 79.23046875 C-3.16015625 79.09765625 -3.16015625 79.09765625 -4.16015625 78.09765625 C-4.2604342 75.69956476 -4.29634301 73.33026127 -4.28955078 70.93164062 C-4.2913031 70.18207596 -4.29305542 69.43251129 -4.29486084 68.66023254 C-4.29927945 66.17060056 -4.29634135 63.68103902 -4.29296875 61.19140625 C-4.29364179 59.46887193 -4.29461181 57.7463377 -4.29586792 56.02380371 C-4.2973449 52.40892637 -4.29519032 48.7940737 -4.29052734 45.17919922 C-4.28483005 40.53499132 -4.28810905 35.89084121 -4.29409981 31.24663544 C-4.29770541 27.68828899 -4.29656684 24.12995635 -4.29397202 20.5716095 C-4.29330274 18.85870863 -4.29413118 17.14580653 -4.29645157 15.4329071 C-4.29897808 13.04312803 -4.29513755 10.65344384 -4.28955078 8.26367188 C-4.29157501 7.54883133 -4.29359924 6.83399078 -4.29568481 6.0974884 C-4.26971803 0.13194431 -4.26971803 0.13194431 0 0 Z " fill="#D3BB98" transform="translate(1177.16015625,526.90234375)"/>
<path d="M0 0 C2.23696743 1.54228419 4.04385387 3.09672268 6 5 C4.68 8.63 3.36 12.26 2 16 C-1.1877155 14.7249138 -4.01133067 13.52221781 -7 11.9375 C-13.50474667 8.66688906 -20.08252428 7.87034676 -27.125 10.125 C-32.63778283 12.41754992 -35.20052343 16.22295522 -37.61328125 21.5859375 C-39.34567884 26.37958224 -39.4442854 30.88351505 -39.375 35.9375 C-39.38660156 36.77990234 -39.39820313 37.62230469 -39.41015625 38.49023438 C-39.37730404 45.60273867 -38.00616705 51.817804 -34.1875 57.875 C-29.67520567 62.25837164 -25.87985015 63.22098426 -19.6875 63.4375 C-11.79679908 63.25734701 -6.11880096 60.89504077 0 56 C0.66 56 1.32 56 2 56 C2.69906942 57.59915881 3.38389468 59.20455045 4.0625 60.8125 C4.44535156 61.70582031 4.82820313 62.59914063 5.22265625 63.51953125 C6 66 6 66 5 69 C-2.3085597 75.40964594 -12.6119814 77.68833949 -22.11328125 77.3359375 C-32.87185385 76.08392499 -41.0497773 72.44584025 -48 64 C-56.11206954 51.31751291 -58.0751114 37.46293821 -54.875 22.75 C-51.89017843 12.32394886 -46.18763782 4.0103211 -36.640625 -1.31640625 C-25.37768743 -6.21407759 -10.81101189 -5.87473389 0 0 Z " fill="#D8C09A" transform="translate(1919,530)"/>
<path d="M0 0 C1.37281012 0.88978434 2.69548512 1.85654955 4 2.84375 C3.45660208 7.40829251 2.20536179 10.8165676 0 14.84375 C-0.5671875 14.55628906 -1.134375 14.26882813 -1.71875 13.97265625 C-3.9612284 12.86293663 -6.21869335 11.80861926 -8.5 10.78125 C-9.2528125 10.43964844 -10.005625 10.09804688 -10.78125 9.74609375 C-17.66417548 6.94687582 -24.42294364 7.00029674 -31.24609375 9.87109375 C-36.24477705 12.64319206 -38.08101679 17.72646145 -40 22.84375 C-42.34824054 32.25290691 -42.28536778 44.01717158 -38 52.84375 C-35.01406404 57.4427778 -32.30716636 60.17600609 -27 61.84375 C-16.80020006 63.08446117 -8.47106096 60.49112398 0 54.84375 C0.70180531 56.2533847 1.38593958 57.67182641 2.0625 59.09375 C2.44535156 59.88265625 2.82820313 60.6715625 3.22265625 61.484375 C4.10872089 64.17373702 4.14796607 65.27295275 3 67.84375 C-3.40726635 73.89125005 -13.0306364 75.94158494 -21.5625 76.21875 C-31.90876509 75.86553469 -40.62417572 72.19832596 -47.9765625 64.875 C-57.37019261 53.84248123 -58.05105982 41.13312515 -57.22753906 27.24462891 C-56.22740428 16.69170455 -51.30432181 8.73924969 -43.75 1.59375 C-31.25129938 -8.30781802 -13.47073781 -7.7877703 0 0 Z " fill="#DAC19B" transform="translate(2016,531.15625)"/>
<path d="M0 0 C6.26340147 5.23300825 9.80065558 10.47273454 11.73828125 18.453125 C12.6607415 28.87907111 12.56777957 39.16744389 5.9375 47.796875 C0.03599754 54.1223689 -6.15878586 56.96564034 -14.8046875 57.65625 C-23.39342664 57.80848762 -31.77081258 56.59078385 -38.6640625 51.06640625 C-46.10008985 43.55765492 -47.92235442 34.77636887 -48.26171875 24.453125 C-47.83477136 16.21616437 -45.3713976 8.63602753 -39.5078125 2.66796875 C-28.83636475 -6.10633273 -11.67665675 -7.98610721 0 0 Z M-29.26171875 11.453125 C-33.72934209 17.46130811 -33.85292571 24.20815244 -33.26171875 31.453125 C-32.31798835 36.22379361 -31.21639076 39.52173767 -27.69921875 42.953125 C-22.6209038 46.07824189 -18.1556804 46.04418613 -12.26171875 45.453125 C-8.50957689 43.71105914 -6.81851235 42.24031595 -4.44921875 38.890625 C-1.78360715 31.17438088 -1.45260985 23.17441899 -4.26171875 15.453125 C-6.45261213 11.43648714 -8.00750166 9.12011432 -12.26171875 7.453125 C-18.88294696 6.59296544 -24.16792708 6.7413677 -29.26171875 11.453125 Z " fill="#D9C09B" transform="translate(2075.26171875,549.546875)"/>
<path d="M0 0 C2.14576637 -0.02685938 4.29162645 -0.04633088 6.4375 -0.0625 C7.63246094 -0.07410156 8.82742188 -0.08570313 10.05859375 -0.09765625 C13 0 13 0 14 1 C14.12330002 3.80078096 14.18616698 6.58066892 14.2109375 9.3828125 C14.23902643 11.12500907 14.267691 12.86719643 14.296875 14.609375 C14.33800246 17.36099797 14.37487923 20.11245289 14.40136719 22.86425781 C14.4291258 25.51664063 14.47501991 28.16823675 14.5234375 30.8203125 C14.52669037 31.63412384 14.52994324 32.44793518 14.53329468 33.28640747 C14.64567614 38.55767894 15.50523527 42.3258479 18 47 C21.71013678 48.85506839 25.95092823 48.45334699 30 48 C34.08824519 45.95587741 36.45653456 44.29676799 38 40 C38.32052491 37.04002421 38.34871805 34.08861634 38.37890625 31.11328125 C38.39590073 30.25566696 38.4128952 29.39805267 38.43040466 28.51445007 C38.483459 25.78054108 38.52381491 23.04664715 38.5625 20.3125 C38.60638776 17.56771633 38.65301674 14.82305169 38.70530701 12.07841492 C38.73733756 10.37132209 38.76420456 8.66412342 38.78553772 6.9568634 C38.88822982 1.11177018 38.88822982 1.11177018 40 0 C42.16480797 -0.0989294 44.33293785 -0.129711 46.5 -0.125 C47.6859375 -0.12757813 48.871875 -0.13015625 50.09375 -0.1328125 C53 0 53 0 54 1 C54.09899561 2.80509373 54.12799151 4.61406928 54.12939453 6.421875 C54.13254669 7.57977539 54.13569885 8.73767578 54.13894653 9.93066406 C54.1369223 11.19104492 54.13489807 12.45142578 54.1328125 13.75 C54.13376923 15.03358398 54.13472595 16.31716797 54.13571167 17.63964844 C54.13718831 20.36003824 54.13503519 23.08039525 54.13037109 25.80078125 C54.12467381 29.29484669 54.12795299 32.78883533 54.13394356 36.28289795 C54.13841754 39.60527153 54.13528885 42.92762423 54.1328125 46.25 C54.13483673 47.51038086 54.13686096 48.77076172 54.13894653 50.06933594 C54.13421829 51.80618652 54.13421829 51.80618652 54.12939453 53.578125 C54.12859894 54.60325195 54.12780334 55.62837891 54.12698364 56.68457031 C54 59 54 59 53 60 C50.81360547 60.07258946 48.62499611 60.08373783 46.4375 60.0625 C44.64119141 60.04896484 44.64119141 60.04896484 42.80859375 60.03515625 C41.88175781 60.02355469 40.95492188 60.01195312 40 60 C39.34 58.02 38.68 56.04 38 54 C37.34 54.598125 36.68 55.19625 36 55.8125 C29.81889352 60.31955681 23.61316935 61.94664628 16 61 C10.29806115 59.8429338 6.92499527 57.44363958 3.2265625 53.01171875 C-0.38229164 47.09273824 -0.26788356 41.272692 -0.1953125 34.5703125 C-0.1924826 33.57998016 -0.18965271 32.58964783 -0.18673706 31.56930542 C-0.1755847 28.42107824 -0.15048907 25.27314051 -0.125 22.125 C-0.11496382 19.98437912 -0.10583908 17.84375376 -0.09765625 15.703125 C-0.07566158 10.46865203 -0.04223333 5.2343467 0 0 Z " fill="#D8BF9A" transform="translate(1526,546)"/>
<path d="M0 0 C6.80849946 5.41782723 10.04289666 12.11830331 11.0234375 20.7109375 C11.0234375 23.6809375 11.0234375 26.6509375 11.0234375 29.7109375 C-3.1665625 29.7109375 -17.3565625 29.7109375 -31.9765625 29.7109375 C-29.03281821 38.72045941 -29.03281821 38.72045941 -22.9765625 43.7109375 C-15.13734054 46.32401149 -5.96791432 45.63072104 1.4609375 42.2109375 C2.99699706 41.40601546 4.52469939 40.5833838 6.0234375 39.7109375 C6.75110753 40.94978069 7.45498565 42.20262091 8.1484375 43.4609375 C8.54289062 44.15703125 8.93734375 44.853125 9.34375 45.5703125 C10.0234375 47.7109375 10.0234375 47.7109375 9.3671875 49.84375 C6.09389727 54.39210095 -0.48177183 56.24392722 -5.7890625 57.39453125 C-15.4439319 58.79103915 -24.63095092 57.53503418 -33.2890625 52.9609375 C-40.10618243 47.25358128 -44.92226189 40.77792275 -45.9765625 31.7109375 C-46.67572532 22.19550206 -45.17584081 13.25060031 -38.9765625 5.7109375 C-28.93729596 -5.09699678 -12.81159783 -8.35538989 0 0 Z M-27.9765625 10.7109375 C-30.64016627 14.88391674 -30.9765625 16.61711275 -30.9765625 21.7109375 C-21.4065625 21.7109375 -11.8365625 21.7109375 -1.9765625 21.7109375 C-2.9300979 13.15546322 -2.9300979 13.15546322 -7.9765625 7.7109375 C-14.26371507 4.56736121 -23.07086317 5.93102534 -27.9765625 10.7109375 Z " fill="#D9C09A" transform="translate(1502.9765625,549.2890625)"/>
<path d="M0 0 C21.45 0 42.9 0 65 0 C65 3.96 65 7.92 65 12 C56.75 12 48.5 12 40 12 C40.00523682 13.99409912 40.01047363 15.98819824 40.01586914 18.04272461 C40.03196623 24.61654057 40.04347203 31.19035188 40.05181217 37.76418209 C40.05704036 41.751572 40.06413684 45.73894067 40.07543945 49.72631836 C40.08627061 53.57125114 40.09227732 57.41616345 40.09487724 61.26111031 C40.09673108 62.73118983 40.10035091 64.20126818 40.10573006 65.67133904 C40.11294355 67.72354467 40.11399081 69.77566467 40.11352539 71.82788086 C40.115746 72.99814316 40.11796661 74.16840546 40.12025452 75.37413025 C40 78 40 78 39 79 C34.71 79 30.42 79 26 79 C26 56.89 26 34.78 26 12 C17.42 12 8.84 12 0 12 C0 8.04 0 4.08 0 0 Z " fill="#DDC29C" transform="translate(1100,527)"/>
<path d="M0 0 C4.62 0 9.24 0 14 0 C14 21.78 14 43.56 14 66 C26.21 66 38.42 66 51 66 C51 69.96 51 73.92 51 78 C49.37245356 79.62754644 47.55861677 79.12737077 45.3125 79.12939453 C44.31476562 79.13254669 43.31703125 79.13569885 42.2890625 79.13894653 C41.20367188 79.1369223 40.11828125 79.13489807 39 79.1328125 C37.89398437 79.13376923 36.78796875 79.13472595 35.6484375 79.13571167 C33.30468692 79.13639367 30.96093447 79.13453804 28.6171875 79.13037109 C25.01558212 79.12502314 21.41410147 79.13031547 17.8125 79.13671875 C15.54166639 79.13605797 13.27083286 79.13477682 11 79.1328125 C9.91460938 79.13483673 8.82921875 79.13686096 7.7109375 79.13894653 C6.71320312 79.13579437 5.71546875 79.13264221 4.6875 79.12939453 C3.80449219 79.12859894 2.92148438 79.12780334 2.01171875 79.12698364 C0 79 0 79 -1 78 C-1.10027795 75.60190851 -1.13618676 73.23260502 -1.12939453 70.83398438 C-1.13114685 70.08441971 -1.13289917 69.33485504 -1.13470459 68.56257629 C-1.1391232 66.07294431 -1.1361851 63.58338277 -1.1328125 61.09375 C-1.13348554 59.37121568 -1.13445556 57.64868145 -1.13571167 55.92614746 C-1.13718865 52.31127012 -1.13503407 48.69641745 -1.13037109 45.08154297 C-1.1246738 40.43733507 -1.1279528 35.79318496 -1.13394356 31.14897919 C-1.13754916 27.59063274 -1.13641059 24.0323001 -1.13381577 20.47395325 C-1.13314649 18.76105238 -1.13397493 17.04815028 -1.13629532 15.33525085 C-1.13882183 12.94547178 -1.1349813 10.55578759 -1.12939453 8.16601562 C-1.13141876 7.45117508 -1.13344299 6.73633453 -1.13552856 5.99983215 C-1.11426269 1.11426269 -1.11426269 1.11426269 0 0 Z " fill="#D1BA97" transform="translate(2153,527)"/>
<path d="M0 0 C1.1859375 0.00257813 2.371875 0.00515625 3.59375 0.0078125 C4.7796875 0.00523437 5.965625 0.00265625 7.1875 0 C10.09375 0.1328125 10.09375 0.1328125 11.09375 1.1328125 C11.23801614 5.80126478 11.13583415 10.46147203 11.09375 15.1328125 C16.70375 15.1328125 22.31375 15.1328125 28.09375 15.1328125 C28.09375 19.0928125 28.09375 23.0528125 28.09375 27.1328125 C22.48375 27.1328125 16.87375 27.1328125 11.09375 27.1328125 C11.21364777 31.63535634 11.33629868 36.13764735 11.46606445 40.63989258 C11.50936833 42.17142268 11.55104667 43.70299965 11.59106445 45.23461914 C11.64887732 47.43650432 11.71253969 49.63815461 11.77734375 51.83984375 C11.79405624 52.52432083 11.81076874 53.20879791 11.82798767 53.91401672 C11.9211055 56.90401354 12.14062437 59.27343561 13.09375 62.1328125 C18.44277924 62.72479993 23.70259846 63.27468491 29.09375 63.1328125 C29.75375 66.4328125 30.41375 69.7328125 31.09375 73.1328125 C22.66315989 76.81161546 15.78899586 77.33761049 7.09765625 74.02734375 C1.26667521 71.42443019 -0.83883448 68.08483819 -3.07495117 62.31762695 C-4.76427238 55.84561661 -4.31248275 49.14475649 -4.15625 42.5078125 C-4.13614241 41.01174282 -4.11789921 39.51564686 -4.1015625 38.01953125 C-4.05793115 34.39007012 -3.98914303 30.76161431 -3.90625 27.1328125 C-7.53625 27.1328125 -11.16625 27.1328125 -14.90625 27.1328125 C-14.90625 23.1728125 -14.90625 19.2128125 -14.90625 15.1328125 C-11.27625 15.1328125 -7.64625 15.1328125 -3.90625 15.1328125 C-3.91785156 14.13378906 -3.92945312 13.13476562 -3.94140625 12.10546875 C-3.95042969 10.81511719 -3.95945312 9.52476562 -3.96875 8.1953125 C-3.98035156 6.90753906 -3.99195312 5.61976563 -4.00390625 4.29296875 C-3.87671815 0.17716185 -3.87671815 0.17716185 0 0 Z " fill="#D3BB98" transform="translate(2217.90625,530.8671875)"/>
<path d="M0 0 C0 3.96 0 7.92 0 12 C-1.53720703 12.38091797 -1.53720703 12.38091797 -3.10546875 12.76953125 C-4.46625347 13.11676597 -5.82692465 13.46444584 -7.1875 13.8125 C-7.86103516 13.97814453 -8.53457031 14.14378906 -9.22851562 14.31445312 C-13.25184482 15.35463092 -16.71149035 16.42089463 -20 19 C-22.29246038 23.30504493 -22.32601734 27.56033734 -22.37890625 32.328125 C-22.39590073 33.11773621 -22.4128952 33.90734741 -22.43040466 34.72088623 C-22.48332891 37.2305107 -22.52376431 39.74011959 -22.5625 42.25 C-22.60640752 44.77408265 -22.65302632 47.29803699 -22.70530701 49.82196045 C-22.73730918 51.38993649 -22.76418522 52.95802686 -22.78553772 54.52618408 C-22.88820543 59.88820543 -22.88820543 59.88820543 -24 61 C-28.29 61 -32.58 61 -37 61 C-37 41.2 -37 21.4 -37 1 C-32.71 1 -28.42 1 -24 1 C-23.34 2.98 -22.68 4.96 -22 7 C-21.01 6.21625 -20.02 5.4325 -19 4.625 C-13.0684834 0.40357791 -7.13110834 -0.29712951 0 0 Z " fill="#DAC09B" transform="translate(1453,545)"/>
<path d="M0 0 C4.95 0 9.9 0 15 0 C13.76091809 4.38012904 12.51797358 8.75874901 11.26464844 13.13476562 C10.83943085 14.62400095 10.41656467 16.11390974 9.99609375 17.60449219 C9.39158015 19.74595311 8.77867332 21.88485587 8.1640625 24.0234375 C7.88425034 25.02508438 7.88425034 25.02508438 7.5987854 26.04696655 C6.74268356 28.9975177 6.20877217 30.79122783 4 33 C1.31160615 33.26991906 -1.29141936 33.08737357 -4 33 C-5.34985763 29.2089105 -4.70636529 26.17198259 -4.00390625 22.265625 C-3.77509766 20.97011719 -3.54628906 19.67460938 -3.31054688 18.33984375 C-3.06137597 16.97652995 -2.81202472 15.61324909 -2.5625 14.25 C-2.31630234 12.87122834 -2.07085116 11.49232317 -1.82617188 10.11328125 C-1.2247976 6.74086863 -0.6133524 3.3702547 0 0 Z " fill="#D6BE99" transform="translate(2126,593)"/>
<path d="M0 0 C3.11045733 2.05007415 4.82874239 3.61040398 6.75 6.8125 C7.08 9.4525 7.41 12.0925 7.75 14.8125 C-2.15 14.8125 -12.05 14.8125 -22.25 14.8125 C-21.02456647 6.23446532 -21.02456647 6.23446532 -18.25 2.8125 C-12.14548938 -1.61626261 -7.31976941 -2.67453113 0 0 Z " fill="#304150" transform="translate(1276.25,556.1875)"/>
<path d="M0 0 C2.47923801 -0.02685095 4.9581884 -0.04676547 7.4375 -0.0625 C8.14455078 -0.07087891 8.85160156 -0.07925781 9.58007812 -0.08789062 C11.38693559 -0.09653588 13.19387603 -0.05220011 15 0 C16 1 16 1 16.1328125 4.125 C16.13023437 5.40375 16.12765625 6.6825 16.125 8 C16.12886719 9.918125 16.12886719 9.918125 16.1328125 11.875 C16 15 16 15 15 16 C12.66839945 16.09909302 10.33370058 16.12970504 8 16.125 C6.72125 16.12757813 5.4425 16.13015625 4.125 16.1328125 C1 16 1 16 0 15 C-0.07313567 12.46950598 -0.09247527 9.96695163 -0.0625 7.4375 C-0.05798828 6.72658203 -0.05347656 6.01566406 -0.04882812 5.28320312 C-0.03700864 3.52209987 -0.01907263 1.76103964 0 0 Z " fill="#CBB594" transform="translate(2097,590)"/>
<path d="M0 0 C0.33 0 0.66 0 1 0 C0.81878899 8.58281257 -0.62152969 16.69435677 -2.4375 25.0625 C-2.65494873 26.0738501 -2.87239746 27.0852002 -3.09643555 28.12719727 C-4.04477409 32.37209031 -4.90512356 36.1593007 -7 40 C-8.38871931 37.75158212 -9.06693576 36.51968427 -8.72387695 33.85620117 C-8.48113037 33.09283447 -8.23838379 32.32946777 -7.98828125 31.54296875 C-7.72611816 30.68405029 -7.46395508 29.82513184 -7.19384766 28.94018555 C-6.90300293 28.03179932 -6.6121582 27.12341309 -6.3125 26.1875 C-3.66942117 17.50836322 -1.56490664 8.93644056 0 0 Z " fill="#B1B8BE" transform="translate(642,242)"/>
<path d="M0 0 C0.33 0 0.66 0 1 0 C0.88490339 1.41750563 0.75746342 2.83401169 0.625 4.25 C0.55539062 5.03890625 0.48578125 5.8278125 0.4140625 6.640625 C-0.030981 9.17653325 -0.57774838 10.85285884 -2 13 C-4.125 14.25 -4.125 14.25 -6 15 C-3.02112676 4.11971831 -3.02112676 4.11971831 0 0 Z " fill="#D9DDE0" transform="translate(634,279)"/>
</svg>
